M48
; DRILL file {KiCad 5.1.5} date za 04 jan 2020 22:00:20 CET
; FORMAT={-:-/ absolute / inch / decimal}
; #@! TF.CreationDate,2020-01-04T22:00:20+01:00
; #@! TF.GenerationSoftware,Kicad,Pcbnew,5.1.5
; #@! TF.FileFunction,Plated,1,2,PTH
FMAT,2
INCH
T1C0.0157
T2C0.0394
T3C0.0598
T4C0.0866
%
G90
G05
T1
X4.96Y-3.615
X4.975Y-3.53
X5.0Y-3.6713
X5.0Y-3.75
X5.0Y-3.83
X5.3Y-3.4846
X5.3Y-3.5654
X4.685Y-3.45
X4.7041Y-3.4041
X4.7041Y-3.4959
X4.75Y-3.385
X4.75Y-3.515
X4.7959Y-3.4041
X4.7959Y-3.4959
X4.815Y-3.45
X4.685Y-3.75
X4.7041Y-3.7041
X4.7041Y-3.7959
X4.75Y-3.685
X4.75Y-3.815
X4.7959Y-3.7041
X4.7959Y-3.7959
X4.815Y-3.75
T2
X5.2Y-3.45
X5.2Y-3.55
X5.2Y-3.65
X5.2Y-3.75
T3
X4.4Y-3.5
X4.4Y-3.7
T4
X4.75Y-3.45
X4.75Y-3.75
T0
M30
