G04 #@! TF.GenerationSoftware,KiCad,Pcbnew,5.1.5*
G04 #@! TF.CreationDate,2020-01-04T22:00:14+01:00*
G04 #@! TF.ProjectId,cs_ina220,63735f69-6e61-4323-9230-2e6b69636164,rev?*
G04 #@! TF.SameCoordinates,Original*
G04 #@! TF.FileFunction,Soldermask,Top*
G04 #@! TF.FilePolarity,Negative*
%FSLAX46Y46*%
G04 Gerber Fmt 4.6, Leading zero omitted, Abs format (unit mm)*
G04 Created by KiCad (PCBNEW 5.1.5) date 2020-01-04 22:00:14*
%MOMM*%
%LPD*%
G04 APERTURE LIST*
%ADD10C,0.100000*%
G04 APERTURE END LIST*
D10*
G36*
X120925880Y-93009776D02*
G01*
X121306593Y-93085504D01*
X121716249Y-93255189D01*
X122084929Y-93501534D01*
X122398466Y-93815071D01*
X122644811Y-94183751D01*
X122814496Y-94593407D01*
X122901000Y-95028296D01*
X122901000Y-95471704D01*
X122814496Y-95906593D01*
X122644811Y-96316249D01*
X122398466Y-96684929D01*
X122084929Y-96998466D01*
X121716249Y-97244811D01*
X121306593Y-97414496D01*
X120925880Y-97490224D01*
X120871705Y-97501000D01*
X120428295Y-97501000D01*
X120374120Y-97490224D01*
X119993407Y-97414496D01*
X119583751Y-97244811D01*
X119215071Y-96998466D01*
X118901534Y-96684929D01*
X118655189Y-96316249D01*
X118485504Y-95906593D01*
X118399000Y-95471704D01*
X118399000Y-95028296D01*
X118485504Y-94593407D01*
X118655189Y-94183751D01*
X118901534Y-93815071D01*
X119215071Y-93501534D01*
X119583751Y-93255189D01*
X119993407Y-93085504D01*
X120374120Y-93009776D01*
X120428295Y-92999000D01*
X120871705Y-92999000D01*
X120925880Y-93009776D01*
G37*
G36*
X132193512Y-94353927D02*
G01*
X132342812Y-94383624D01*
X132506784Y-94451544D01*
X132654354Y-94550147D01*
X132779853Y-94675646D01*
X132878456Y-94823216D01*
X132946376Y-94987188D01*
X132981000Y-95161259D01*
X132981000Y-95338741D01*
X132946376Y-95512812D01*
X132878456Y-95676784D01*
X132779853Y-95824354D01*
X132654354Y-95949853D01*
X132506784Y-96048456D01*
X132342812Y-96116376D01*
X132193512Y-96146073D01*
X132168742Y-96151000D01*
X131991258Y-96151000D01*
X131966488Y-96146073D01*
X131817188Y-96116376D01*
X131653216Y-96048456D01*
X131505646Y-95949853D01*
X131380147Y-95824354D01*
X131281544Y-95676784D01*
X131213624Y-95512812D01*
X131179000Y-95338741D01*
X131179000Y-95161259D01*
X131213624Y-94987188D01*
X131281544Y-94823216D01*
X131380147Y-94675646D01*
X131505646Y-94550147D01*
X131653216Y-94451544D01*
X131817188Y-94383624D01*
X131966488Y-94353927D01*
X131991258Y-94349000D01*
X132168742Y-94349000D01*
X132193512Y-94353927D01*
G37*
G36*
X112062585Y-92458802D02*
G01*
X112212410Y-92488604D01*
X112494674Y-92605521D01*
X112748705Y-92775259D01*
X112964741Y-92991295D01*
X113134479Y-93245326D01*
X113251396Y-93527590D01*
X113272935Y-93635873D01*
X113308580Y-93815071D01*
X113311000Y-93827240D01*
X113311000Y-94132760D01*
X113251396Y-94432410D01*
X113134479Y-94714674D01*
X112964741Y-94968705D01*
X112748705Y-95184741D01*
X112494674Y-95354479D01*
X112212410Y-95471396D01*
X112062585Y-95501198D01*
X111912761Y-95531000D01*
X111607239Y-95531000D01*
X111457415Y-95501198D01*
X111307590Y-95471396D01*
X111025326Y-95354479D01*
X110771295Y-95184741D01*
X110555259Y-94968705D01*
X110385521Y-94714674D01*
X110268604Y-94432410D01*
X110209000Y-94132760D01*
X110209000Y-93827240D01*
X110211421Y-93815071D01*
X110247065Y-93635873D01*
X110268604Y-93527590D01*
X110385521Y-93245326D01*
X110555259Y-92991295D01*
X110771295Y-92775259D01*
X111025326Y-92605521D01*
X111307590Y-92488604D01*
X111457415Y-92458802D01*
X111607239Y-92429000D01*
X111912761Y-92429000D01*
X112062585Y-92458802D01*
G37*
G36*
X118250562Y-92168181D02*
G01*
X118285481Y-92178774D01*
X118317663Y-92195976D01*
X118345873Y-92219127D01*
X118369024Y-92247337D01*
X118386226Y-92279519D01*
X118396819Y-92314438D01*
X118401000Y-92356895D01*
X118401000Y-93498105D01*
X118396819Y-93540562D01*
X118386226Y-93575481D01*
X118369024Y-93607663D01*
X118345873Y-93635873D01*
X118317663Y-93659024D01*
X118285481Y-93676226D01*
X118250562Y-93686819D01*
X118208105Y-93691000D01*
X116741895Y-93691000D01*
X116699438Y-93686819D01*
X116664519Y-93676226D01*
X116632337Y-93659024D01*
X116604127Y-93635873D01*
X116580976Y-93607663D01*
X116563774Y-93575481D01*
X116553181Y-93540562D01*
X116549000Y-93498105D01*
X116549000Y-92356895D01*
X116553181Y-92314438D01*
X116563774Y-92279519D01*
X116580976Y-92247337D01*
X116604127Y-92219127D01*
X116632337Y-92195976D01*
X116664519Y-92178774D01*
X116699438Y-92168181D01*
X116741895Y-92164000D01*
X118208105Y-92164000D01*
X118250562Y-92168181D01*
G37*
G36*
X132193512Y-91813927D02*
G01*
X132342812Y-91843624D01*
X132506784Y-91911544D01*
X132654354Y-92010147D01*
X132779853Y-92135646D01*
X132878456Y-92283216D01*
X132946376Y-92447188D01*
X132981000Y-92621259D01*
X132981000Y-92798741D01*
X132946376Y-92972812D01*
X132878456Y-93136784D01*
X132779853Y-93284354D01*
X132654354Y-93409853D01*
X132506784Y-93508456D01*
X132342812Y-93576376D01*
X132193512Y-93606073D01*
X132168742Y-93611000D01*
X131991258Y-93611000D01*
X131966488Y-93606073D01*
X131817188Y-93576376D01*
X131653216Y-93508456D01*
X131505646Y-93409853D01*
X131380147Y-93284354D01*
X131281544Y-93136784D01*
X131213624Y-92972812D01*
X131179000Y-92798741D01*
X131179000Y-92621259D01*
X131213624Y-92447188D01*
X131281544Y-92283216D01*
X131380147Y-92135646D01*
X131505646Y-92010147D01*
X131653216Y-91911544D01*
X131817188Y-91843624D01*
X131966488Y-91813927D01*
X131991258Y-91809000D01*
X132168742Y-91809000D01*
X132193512Y-91813927D01*
G37*
G36*
X128675295Y-90240323D02*
G01*
X128682310Y-90242451D01*
X128688776Y-90245908D01*
X128694442Y-90250558D01*
X128699092Y-90256224D01*
X128702549Y-90262690D01*
X128704677Y-90269705D01*
X128706000Y-90283140D01*
X128706000Y-90596860D01*
X128704677Y-90610295D01*
X128702549Y-90617309D01*
X128695190Y-90631077D01*
X128685813Y-90653716D01*
X128681033Y-90677749D01*
X128681033Y-90702253D01*
X128685814Y-90726286D01*
X128695190Y-90748923D01*
X128702549Y-90762691D01*
X128704677Y-90769705D01*
X128706000Y-90783140D01*
X128706000Y-91096860D01*
X128704677Y-91110295D01*
X128702549Y-91117309D01*
X128695190Y-91131077D01*
X128685813Y-91153716D01*
X128681033Y-91177749D01*
X128681033Y-91202253D01*
X128685814Y-91226286D01*
X128695190Y-91248923D01*
X128702549Y-91262691D01*
X128704677Y-91269705D01*
X128706000Y-91283140D01*
X128706000Y-91596860D01*
X128704677Y-91610295D01*
X128702549Y-91617309D01*
X128695190Y-91631077D01*
X128685813Y-91653716D01*
X128681033Y-91677749D01*
X128681033Y-91702253D01*
X128685814Y-91726286D01*
X128695190Y-91748923D01*
X128702549Y-91762691D01*
X128704677Y-91769705D01*
X128706000Y-91783140D01*
X128706000Y-92096860D01*
X128704677Y-92110295D01*
X128702549Y-92117309D01*
X128695190Y-92131077D01*
X128685813Y-92153716D01*
X128681033Y-92177749D01*
X128681033Y-92202253D01*
X128685814Y-92226286D01*
X128695190Y-92248923D01*
X128702549Y-92262691D01*
X128704677Y-92269705D01*
X128706000Y-92283140D01*
X128706000Y-92596860D01*
X128704677Y-92610295D01*
X128702549Y-92617310D01*
X128699092Y-92623776D01*
X128694442Y-92629442D01*
X128688776Y-92634092D01*
X128682310Y-92637549D01*
X128675295Y-92639677D01*
X128661860Y-92641000D01*
X127198140Y-92641000D01*
X127184705Y-92639677D01*
X127177690Y-92637549D01*
X127171224Y-92634092D01*
X127165558Y-92629442D01*
X127160908Y-92623776D01*
X127157451Y-92617310D01*
X127155323Y-92610295D01*
X127154000Y-92596860D01*
X127154000Y-92283140D01*
X127155323Y-92269705D01*
X127157451Y-92262691D01*
X127164810Y-92248923D01*
X127174187Y-92226284D01*
X127178967Y-92202251D01*
X127178967Y-92177747D01*
X127174186Y-92153714D01*
X127164810Y-92131077D01*
X127157451Y-92117309D01*
X127155323Y-92110295D01*
X127154000Y-92096860D01*
X127154000Y-91783140D01*
X127155323Y-91769705D01*
X127157451Y-91762691D01*
X127164810Y-91748923D01*
X127174187Y-91726284D01*
X127178967Y-91702251D01*
X127178967Y-91677747D01*
X127174186Y-91653714D01*
X127164810Y-91631077D01*
X127157451Y-91617309D01*
X127155323Y-91610295D01*
X127154000Y-91596860D01*
X127154000Y-91283140D01*
X127155323Y-91269705D01*
X127157451Y-91262691D01*
X127164810Y-91248923D01*
X127174187Y-91226284D01*
X127178967Y-91202251D01*
X127178967Y-91177747D01*
X127174186Y-91153714D01*
X127164810Y-91131077D01*
X127157451Y-91117309D01*
X127155323Y-91110295D01*
X127154000Y-91096860D01*
X127154000Y-90783140D01*
X127155323Y-90769705D01*
X127157451Y-90762691D01*
X127164810Y-90748923D01*
X127174187Y-90726284D01*
X127178967Y-90702251D01*
X127178967Y-90677747D01*
X127174186Y-90653714D01*
X127164810Y-90631077D01*
X127157451Y-90617309D01*
X127155323Y-90610295D01*
X127154000Y-90596860D01*
X127154000Y-90283140D01*
X127155323Y-90269705D01*
X127157451Y-90262690D01*
X127160908Y-90256224D01*
X127165558Y-90250558D01*
X127171224Y-90245908D01*
X127177690Y-90242451D01*
X127184705Y-90240323D01*
X127198140Y-90239000D01*
X128661860Y-90239000D01*
X128675295Y-90240323D01*
G37*
G36*
X124275295Y-90240323D02*
G01*
X124282310Y-90242451D01*
X124288776Y-90245908D01*
X124294442Y-90250558D01*
X124299092Y-90256224D01*
X124302549Y-90262690D01*
X124304677Y-90269705D01*
X124306000Y-90283140D01*
X124306000Y-90596860D01*
X124304677Y-90610295D01*
X124302549Y-90617309D01*
X124295190Y-90631077D01*
X124285813Y-90653716D01*
X124281033Y-90677749D01*
X124281033Y-90702253D01*
X124285814Y-90726286D01*
X124295190Y-90748923D01*
X124302549Y-90762691D01*
X124304677Y-90769705D01*
X124306000Y-90783140D01*
X124306000Y-91096860D01*
X124304677Y-91110295D01*
X124302549Y-91117309D01*
X124295190Y-91131077D01*
X124285813Y-91153716D01*
X124281033Y-91177749D01*
X124281033Y-91202253D01*
X124285814Y-91226286D01*
X124295190Y-91248923D01*
X124302549Y-91262691D01*
X124304677Y-91269705D01*
X124306000Y-91283140D01*
X124306000Y-91596860D01*
X124304677Y-91610295D01*
X124302549Y-91617309D01*
X124295190Y-91631077D01*
X124285813Y-91653716D01*
X124281033Y-91677749D01*
X124281033Y-91702253D01*
X124285814Y-91726286D01*
X124295190Y-91748923D01*
X124302549Y-91762691D01*
X124304677Y-91769705D01*
X124306000Y-91783140D01*
X124306000Y-92096860D01*
X124304677Y-92110295D01*
X124302549Y-92117309D01*
X124295190Y-92131077D01*
X124285813Y-92153716D01*
X124281033Y-92177749D01*
X124281033Y-92202253D01*
X124285814Y-92226286D01*
X124295190Y-92248923D01*
X124302549Y-92262691D01*
X124304677Y-92269705D01*
X124306000Y-92283140D01*
X124306000Y-92596860D01*
X124304677Y-92610295D01*
X124302549Y-92617310D01*
X124299092Y-92623776D01*
X124294442Y-92629442D01*
X124288776Y-92634092D01*
X124282310Y-92637549D01*
X124275295Y-92639677D01*
X124261860Y-92641000D01*
X122798140Y-92641000D01*
X122784705Y-92639677D01*
X122777690Y-92637549D01*
X122771224Y-92634092D01*
X122765558Y-92629442D01*
X122760908Y-92623776D01*
X122757451Y-92617310D01*
X122755323Y-92610295D01*
X122754000Y-92596860D01*
X122754000Y-92283140D01*
X122755323Y-92269705D01*
X122757451Y-92262691D01*
X122764810Y-92248923D01*
X122774187Y-92226284D01*
X122778967Y-92202251D01*
X122778967Y-92177747D01*
X122774186Y-92153714D01*
X122764810Y-92131077D01*
X122757451Y-92117309D01*
X122755323Y-92110295D01*
X122754000Y-92096860D01*
X122754000Y-91783140D01*
X122755323Y-91769705D01*
X122757451Y-91762691D01*
X122764810Y-91748923D01*
X122774187Y-91726284D01*
X122778967Y-91702251D01*
X122778967Y-91677747D01*
X122774186Y-91653714D01*
X122764810Y-91631077D01*
X122757451Y-91617309D01*
X122755323Y-91610295D01*
X122754000Y-91596860D01*
X122754000Y-91283140D01*
X122755323Y-91269705D01*
X122757451Y-91262691D01*
X122764810Y-91248923D01*
X122774187Y-91226284D01*
X122778967Y-91202251D01*
X122778967Y-91177747D01*
X122774186Y-91153714D01*
X122764810Y-91131077D01*
X122757451Y-91117309D01*
X122755323Y-91110295D01*
X122754000Y-91096860D01*
X122754000Y-90783140D01*
X122755323Y-90769705D01*
X122757451Y-90762691D01*
X122764810Y-90748923D01*
X122774187Y-90726284D01*
X122778967Y-90702251D01*
X122778967Y-90677747D01*
X122774186Y-90653714D01*
X122764810Y-90631077D01*
X122757451Y-90617309D01*
X122755323Y-90610295D01*
X122754000Y-90596860D01*
X122754000Y-90283140D01*
X122755323Y-90269705D01*
X122757451Y-90262690D01*
X122760908Y-90256224D01*
X122765558Y-90250558D01*
X122771224Y-90245908D01*
X122777690Y-90242451D01*
X122784705Y-90240323D01*
X122798140Y-90239000D01*
X124261860Y-90239000D01*
X124275295Y-90240323D01*
G37*
G36*
X132185518Y-89272337D02*
G01*
X132342812Y-89303624D01*
X132506784Y-89371544D01*
X132654354Y-89470147D01*
X132779853Y-89595646D01*
X132878456Y-89743216D01*
X132946376Y-89907188D01*
X132981000Y-90081259D01*
X132981000Y-90258741D01*
X132946376Y-90432812D01*
X132878456Y-90596784D01*
X132779853Y-90744354D01*
X132654354Y-90869853D01*
X132506784Y-90968456D01*
X132342812Y-91036376D01*
X132193512Y-91066073D01*
X132168742Y-91071000D01*
X131991258Y-91071000D01*
X131966488Y-91066073D01*
X131817188Y-91036376D01*
X131653216Y-90968456D01*
X131505646Y-90869853D01*
X131380147Y-90744354D01*
X131281544Y-90596784D01*
X131213624Y-90432812D01*
X131179000Y-90258741D01*
X131179000Y-90081259D01*
X131213624Y-89907188D01*
X131281544Y-89743216D01*
X131380147Y-89595646D01*
X131505646Y-89470147D01*
X131653216Y-89371544D01*
X131817188Y-89303624D01*
X131974482Y-89272337D01*
X131991258Y-89269000D01*
X132168742Y-89269000D01*
X132185518Y-89272337D01*
G37*
G36*
X118250562Y-89193181D02*
G01*
X118285481Y-89203774D01*
X118317663Y-89220976D01*
X118345873Y-89244127D01*
X118369024Y-89272337D01*
X118386226Y-89304519D01*
X118396819Y-89339438D01*
X118401000Y-89381895D01*
X118401000Y-90523105D01*
X118396819Y-90565562D01*
X118386226Y-90600481D01*
X118369024Y-90632663D01*
X118345873Y-90660873D01*
X118317663Y-90684024D01*
X118285481Y-90701226D01*
X118250562Y-90711819D01*
X118208105Y-90716000D01*
X116741895Y-90716000D01*
X116699438Y-90711819D01*
X116664519Y-90701226D01*
X116632337Y-90684024D01*
X116604127Y-90660873D01*
X116580976Y-90632663D01*
X116563774Y-90600481D01*
X116553181Y-90565562D01*
X116549000Y-90523105D01*
X116549000Y-89381895D01*
X116553181Y-89339438D01*
X116563774Y-89304519D01*
X116580976Y-89272337D01*
X116604127Y-89244127D01*
X116632337Y-89220976D01*
X116664519Y-89203774D01*
X116699438Y-89193181D01*
X116741895Y-89189000D01*
X118208105Y-89189000D01*
X118250562Y-89193181D01*
G37*
G36*
X113311000Y-90451000D02*
G01*
X110209000Y-90451000D01*
X110209000Y-87349000D01*
X113311000Y-87349000D01*
X113311000Y-90451000D01*
G37*
G36*
X120925880Y-85389776D02*
G01*
X121306593Y-85465504D01*
X121716249Y-85635189D01*
X122084929Y-85881534D01*
X122398466Y-86195071D01*
X122644811Y-86563751D01*
X122814496Y-86973407D01*
X122901000Y-87408296D01*
X122901000Y-87851704D01*
X122814496Y-88286593D01*
X122644811Y-88696249D01*
X122398466Y-89064929D01*
X122084929Y-89378466D01*
X121716249Y-89624811D01*
X121306593Y-89794496D01*
X120925880Y-89870224D01*
X120871705Y-89881000D01*
X120428295Y-89881000D01*
X120374120Y-89870224D01*
X119993407Y-89794496D01*
X119583751Y-89624811D01*
X119215071Y-89378466D01*
X118901534Y-89064929D01*
X118655189Y-88696249D01*
X118485504Y-88286593D01*
X118399000Y-87851704D01*
X118399000Y-87408296D01*
X118485504Y-86973407D01*
X118655189Y-86563751D01*
X118901534Y-86195071D01*
X119215071Y-85881534D01*
X119583751Y-85635189D01*
X119993407Y-85465504D01*
X120374120Y-85389776D01*
X120428295Y-85379000D01*
X120871705Y-85379000D01*
X120925880Y-85389776D01*
G37*
G36*
X128858674Y-88033465D02*
G01*
X128896367Y-88044899D01*
X128931103Y-88063466D01*
X128961548Y-88088452D01*
X128986534Y-88118897D01*
X129005101Y-88153633D01*
X129016535Y-88191326D01*
X129021000Y-88236661D01*
X129021000Y-89073339D01*
X129016535Y-89118674D01*
X129005101Y-89156367D01*
X128986534Y-89191103D01*
X128961548Y-89221548D01*
X128931103Y-89246534D01*
X128896367Y-89265101D01*
X128858674Y-89276535D01*
X128813339Y-89281000D01*
X127726661Y-89281000D01*
X127681326Y-89276535D01*
X127643633Y-89265101D01*
X127608897Y-89246534D01*
X127578452Y-89221548D01*
X127553466Y-89191103D01*
X127534899Y-89156367D01*
X127523465Y-89118674D01*
X127519000Y-89073339D01*
X127519000Y-88236661D01*
X127523465Y-88191326D01*
X127534899Y-88153633D01*
X127553466Y-88118897D01*
X127578452Y-88088452D01*
X127608897Y-88063466D01*
X127643633Y-88044899D01*
X127681326Y-88033465D01*
X127726661Y-88029000D01*
X128813339Y-88029000D01*
X128858674Y-88033465D01*
G37*
G36*
X132981000Y-88531000D02*
G01*
X131179000Y-88531000D01*
X131179000Y-86729000D01*
X132981000Y-86729000D01*
X132981000Y-88531000D01*
G37*
G36*
X128858674Y-85983465D02*
G01*
X128896367Y-85994899D01*
X128931103Y-86013466D01*
X128961548Y-86038452D01*
X128986534Y-86068897D01*
X129005101Y-86103633D01*
X129016535Y-86141326D01*
X129021000Y-86186661D01*
X129021000Y-87023339D01*
X129016535Y-87068674D01*
X129005101Y-87106367D01*
X128986534Y-87141103D01*
X128961548Y-87171548D01*
X128931103Y-87196534D01*
X128896367Y-87215101D01*
X128858674Y-87226535D01*
X128813339Y-87231000D01*
X127726661Y-87231000D01*
X127681326Y-87226535D01*
X127643633Y-87215101D01*
X127608897Y-87196534D01*
X127578452Y-87171548D01*
X127553466Y-87141103D01*
X127534899Y-87106367D01*
X127523465Y-87068674D01*
X127519000Y-87023339D01*
X127519000Y-86186661D01*
X127523465Y-86141326D01*
X127534899Y-86103633D01*
X127553466Y-86068897D01*
X127578452Y-86038452D01*
X127608897Y-86013466D01*
X127643633Y-85994899D01*
X127681326Y-85983465D01*
X127726661Y-85979000D01*
X128813339Y-85979000D01*
X128858674Y-85983465D01*
G37*
M02*
