G04 #@! TF.GenerationSoftware,KiCad,Pcbnew,5.1.5*
G04 #@! TF.CreationDate,2020-01-04T22:00:14+01:00*
G04 #@! TF.ProjectId,cs_ina220,63735f69-6e61-4323-9230-2e6b69636164,rev?*
G04 #@! TF.SameCoordinates,Original*
G04 #@! TF.FileFunction,Copper,L1,Top*
G04 #@! TF.FilePolarity,Positive*
%FSLAX46Y46*%
G04 Gerber Fmt 4.6, Leading zero omitted, Abs format (unit mm)*
G04 Created by KiCad (PCBNEW 5.1.5) date 2020-01-04 22:00:14*
%MOMM*%
%LPD*%
G04 APERTURE LIST*
%ADD10C,0.700000*%
%ADD11C,4.400000*%
%ADD12C,0.100000*%
%ADD13C,3.000000*%
%ADD14R,3.000000X3.000000*%
%ADD15O,1.700000X1.700000*%
%ADD16R,1.700000X1.700000*%
%ADD17C,0.800000*%
%ADD18C,0.250000*%
%ADD19C,2.000000*%
%ADD20C,0.254000*%
G04 APERTURE END LIST*
D10*
X121816726Y-94083274D03*
X120650000Y-93600000D03*
X119483274Y-94083274D03*
X119000000Y-95250000D03*
X119483274Y-96416726D03*
X120650000Y-96900000D03*
X121816726Y-96416726D03*
X122300000Y-95250000D03*
D11*
X120650000Y-95250000D03*
D10*
X121816726Y-86463274D03*
X120650000Y-85980000D03*
X119483274Y-86463274D03*
X119000000Y-87630000D03*
X119483274Y-88796726D03*
X120650000Y-89280000D03*
X121816726Y-88796726D03*
X122300000Y-87630000D03*
D11*
X120650000Y-87630000D03*
G04 #@! TA.AperFunction,SMDPad,CuDef*
D12*
G36*
X124187351Y-92290361D02*
G01*
X124194632Y-92291441D01*
X124201771Y-92293229D01*
X124208701Y-92295709D01*
X124215355Y-92298856D01*
X124221668Y-92302640D01*
X124227579Y-92307024D01*
X124233033Y-92311967D01*
X124237976Y-92317421D01*
X124242360Y-92323332D01*
X124246144Y-92329645D01*
X124249291Y-92336299D01*
X124251771Y-92343229D01*
X124253559Y-92350368D01*
X124254639Y-92357649D01*
X124255000Y-92365000D01*
X124255000Y-92515000D01*
X124254639Y-92522351D01*
X124253559Y-92529632D01*
X124251771Y-92536771D01*
X124249291Y-92543701D01*
X124246144Y-92550355D01*
X124242360Y-92556668D01*
X124237976Y-92562579D01*
X124233033Y-92568033D01*
X124227579Y-92572976D01*
X124221668Y-92577360D01*
X124215355Y-92581144D01*
X124208701Y-92584291D01*
X124201771Y-92586771D01*
X124194632Y-92588559D01*
X124187351Y-92589639D01*
X124180000Y-92590000D01*
X122880000Y-92590000D01*
X122872649Y-92589639D01*
X122865368Y-92588559D01*
X122858229Y-92586771D01*
X122851299Y-92584291D01*
X122844645Y-92581144D01*
X122838332Y-92577360D01*
X122832421Y-92572976D01*
X122826967Y-92568033D01*
X122822024Y-92562579D01*
X122817640Y-92556668D01*
X122813856Y-92550355D01*
X122810709Y-92543701D01*
X122808229Y-92536771D01*
X122806441Y-92529632D01*
X122805361Y-92522351D01*
X122805000Y-92515000D01*
X122805000Y-92365000D01*
X122805361Y-92357649D01*
X122806441Y-92350368D01*
X122808229Y-92343229D01*
X122810709Y-92336299D01*
X122813856Y-92329645D01*
X122817640Y-92323332D01*
X122822024Y-92317421D01*
X122826967Y-92311967D01*
X122832421Y-92307024D01*
X122838332Y-92302640D01*
X122844645Y-92298856D01*
X122851299Y-92295709D01*
X122858229Y-92293229D01*
X122865368Y-92291441D01*
X122872649Y-92290361D01*
X122880000Y-92290000D01*
X124180000Y-92290000D01*
X124187351Y-92290361D01*
G37*
G04 #@! TD.AperFunction*
G04 #@! TA.AperFunction,SMDPad,CuDef*
G36*
X124187351Y-91790361D02*
G01*
X124194632Y-91791441D01*
X124201771Y-91793229D01*
X124208701Y-91795709D01*
X124215355Y-91798856D01*
X124221668Y-91802640D01*
X124227579Y-91807024D01*
X124233033Y-91811967D01*
X124237976Y-91817421D01*
X124242360Y-91823332D01*
X124246144Y-91829645D01*
X124249291Y-91836299D01*
X124251771Y-91843229D01*
X124253559Y-91850368D01*
X124254639Y-91857649D01*
X124255000Y-91865000D01*
X124255000Y-92015000D01*
X124254639Y-92022351D01*
X124253559Y-92029632D01*
X124251771Y-92036771D01*
X124249291Y-92043701D01*
X124246144Y-92050355D01*
X124242360Y-92056668D01*
X124237976Y-92062579D01*
X124233033Y-92068033D01*
X124227579Y-92072976D01*
X124221668Y-92077360D01*
X124215355Y-92081144D01*
X124208701Y-92084291D01*
X124201771Y-92086771D01*
X124194632Y-92088559D01*
X124187351Y-92089639D01*
X124180000Y-92090000D01*
X122880000Y-92090000D01*
X122872649Y-92089639D01*
X122865368Y-92088559D01*
X122858229Y-92086771D01*
X122851299Y-92084291D01*
X122844645Y-92081144D01*
X122838332Y-92077360D01*
X122832421Y-92072976D01*
X122826967Y-92068033D01*
X122822024Y-92062579D01*
X122817640Y-92056668D01*
X122813856Y-92050355D01*
X122810709Y-92043701D01*
X122808229Y-92036771D01*
X122806441Y-92029632D01*
X122805361Y-92022351D01*
X122805000Y-92015000D01*
X122805000Y-91865000D01*
X122805361Y-91857649D01*
X122806441Y-91850368D01*
X122808229Y-91843229D01*
X122810709Y-91836299D01*
X122813856Y-91829645D01*
X122817640Y-91823332D01*
X122822024Y-91817421D01*
X122826967Y-91811967D01*
X122832421Y-91807024D01*
X122838332Y-91802640D01*
X122844645Y-91798856D01*
X122851299Y-91795709D01*
X122858229Y-91793229D01*
X122865368Y-91791441D01*
X122872649Y-91790361D01*
X122880000Y-91790000D01*
X124180000Y-91790000D01*
X124187351Y-91790361D01*
G37*
G04 #@! TD.AperFunction*
G04 #@! TA.AperFunction,SMDPad,CuDef*
G36*
X124187351Y-91290361D02*
G01*
X124194632Y-91291441D01*
X124201771Y-91293229D01*
X124208701Y-91295709D01*
X124215355Y-91298856D01*
X124221668Y-91302640D01*
X124227579Y-91307024D01*
X124233033Y-91311967D01*
X124237976Y-91317421D01*
X124242360Y-91323332D01*
X124246144Y-91329645D01*
X124249291Y-91336299D01*
X124251771Y-91343229D01*
X124253559Y-91350368D01*
X124254639Y-91357649D01*
X124255000Y-91365000D01*
X124255000Y-91515000D01*
X124254639Y-91522351D01*
X124253559Y-91529632D01*
X124251771Y-91536771D01*
X124249291Y-91543701D01*
X124246144Y-91550355D01*
X124242360Y-91556668D01*
X124237976Y-91562579D01*
X124233033Y-91568033D01*
X124227579Y-91572976D01*
X124221668Y-91577360D01*
X124215355Y-91581144D01*
X124208701Y-91584291D01*
X124201771Y-91586771D01*
X124194632Y-91588559D01*
X124187351Y-91589639D01*
X124180000Y-91590000D01*
X122880000Y-91590000D01*
X122872649Y-91589639D01*
X122865368Y-91588559D01*
X122858229Y-91586771D01*
X122851299Y-91584291D01*
X122844645Y-91581144D01*
X122838332Y-91577360D01*
X122832421Y-91572976D01*
X122826967Y-91568033D01*
X122822024Y-91562579D01*
X122817640Y-91556668D01*
X122813856Y-91550355D01*
X122810709Y-91543701D01*
X122808229Y-91536771D01*
X122806441Y-91529632D01*
X122805361Y-91522351D01*
X122805000Y-91515000D01*
X122805000Y-91365000D01*
X122805361Y-91357649D01*
X122806441Y-91350368D01*
X122808229Y-91343229D01*
X122810709Y-91336299D01*
X122813856Y-91329645D01*
X122817640Y-91323332D01*
X122822024Y-91317421D01*
X122826967Y-91311967D01*
X122832421Y-91307024D01*
X122838332Y-91302640D01*
X122844645Y-91298856D01*
X122851299Y-91295709D01*
X122858229Y-91293229D01*
X122865368Y-91291441D01*
X122872649Y-91290361D01*
X122880000Y-91290000D01*
X124180000Y-91290000D01*
X124187351Y-91290361D01*
G37*
G04 #@! TD.AperFunction*
G04 #@! TA.AperFunction,SMDPad,CuDef*
G36*
X124187351Y-90790361D02*
G01*
X124194632Y-90791441D01*
X124201771Y-90793229D01*
X124208701Y-90795709D01*
X124215355Y-90798856D01*
X124221668Y-90802640D01*
X124227579Y-90807024D01*
X124233033Y-90811967D01*
X124237976Y-90817421D01*
X124242360Y-90823332D01*
X124246144Y-90829645D01*
X124249291Y-90836299D01*
X124251771Y-90843229D01*
X124253559Y-90850368D01*
X124254639Y-90857649D01*
X124255000Y-90865000D01*
X124255000Y-91015000D01*
X124254639Y-91022351D01*
X124253559Y-91029632D01*
X124251771Y-91036771D01*
X124249291Y-91043701D01*
X124246144Y-91050355D01*
X124242360Y-91056668D01*
X124237976Y-91062579D01*
X124233033Y-91068033D01*
X124227579Y-91072976D01*
X124221668Y-91077360D01*
X124215355Y-91081144D01*
X124208701Y-91084291D01*
X124201771Y-91086771D01*
X124194632Y-91088559D01*
X124187351Y-91089639D01*
X124180000Y-91090000D01*
X122880000Y-91090000D01*
X122872649Y-91089639D01*
X122865368Y-91088559D01*
X122858229Y-91086771D01*
X122851299Y-91084291D01*
X122844645Y-91081144D01*
X122838332Y-91077360D01*
X122832421Y-91072976D01*
X122826967Y-91068033D01*
X122822024Y-91062579D01*
X122817640Y-91056668D01*
X122813856Y-91050355D01*
X122810709Y-91043701D01*
X122808229Y-91036771D01*
X122806441Y-91029632D01*
X122805361Y-91022351D01*
X122805000Y-91015000D01*
X122805000Y-90865000D01*
X122805361Y-90857649D01*
X122806441Y-90850368D01*
X122808229Y-90843229D01*
X122810709Y-90836299D01*
X122813856Y-90829645D01*
X122817640Y-90823332D01*
X122822024Y-90817421D01*
X122826967Y-90811967D01*
X122832421Y-90807024D01*
X122838332Y-90802640D01*
X122844645Y-90798856D01*
X122851299Y-90795709D01*
X122858229Y-90793229D01*
X122865368Y-90791441D01*
X122872649Y-90790361D01*
X122880000Y-90790000D01*
X124180000Y-90790000D01*
X124187351Y-90790361D01*
G37*
G04 #@! TD.AperFunction*
G04 #@! TA.AperFunction,SMDPad,CuDef*
G36*
X124187351Y-90290361D02*
G01*
X124194632Y-90291441D01*
X124201771Y-90293229D01*
X124208701Y-90295709D01*
X124215355Y-90298856D01*
X124221668Y-90302640D01*
X124227579Y-90307024D01*
X124233033Y-90311967D01*
X124237976Y-90317421D01*
X124242360Y-90323332D01*
X124246144Y-90329645D01*
X124249291Y-90336299D01*
X124251771Y-90343229D01*
X124253559Y-90350368D01*
X124254639Y-90357649D01*
X124255000Y-90365000D01*
X124255000Y-90515000D01*
X124254639Y-90522351D01*
X124253559Y-90529632D01*
X124251771Y-90536771D01*
X124249291Y-90543701D01*
X124246144Y-90550355D01*
X124242360Y-90556668D01*
X124237976Y-90562579D01*
X124233033Y-90568033D01*
X124227579Y-90572976D01*
X124221668Y-90577360D01*
X124215355Y-90581144D01*
X124208701Y-90584291D01*
X124201771Y-90586771D01*
X124194632Y-90588559D01*
X124187351Y-90589639D01*
X124180000Y-90590000D01*
X122880000Y-90590000D01*
X122872649Y-90589639D01*
X122865368Y-90588559D01*
X122858229Y-90586771D01*
X122851299Y-90584291D01*
X122844645Y-90581144D01*
X122838332Y-90577360D01*
X122832421Y-90572976D01*
X122826967Y-90568033D01*
X122822024Y-90562579D01*
X122817640Y-90556668D01*
X122813856Y-90550355D01*
X122810709Y-90543701D01*
X122808229Y-90536771D01*
X122806441Y-90529632D01*
X122805361Y-90522351D01*
X122805000Y-90515000D01*
X122805000Y-90365000D01*
X122805361Y-90357649D01*
X122806441Y-90350368D01*
X122808229Y-90343229D01*
X122810709Y-90336299D01*
X122813856Y-90329645D01*
X122817640Y-90323332D01*
X122822024Y-90317421D01*
X122826967Y-90311967D01*
X122832421Y-90307024D01*
X122838332Y-90302640D01*
X122844645Y-90298856D01*
X122851299Y-90295709D01*
X122858229Y-90293229D01*
X122865368Y-90291441D01*
X122872649Y-90290361D01*
X122880000Y-90290000D01*
X124180000Y-90290000D01*
X124187351Y-90290361D01*
G37*
G04 #@! TD.AperFunction*
G04 #@! TA.AperFunction,SMDPad,CuDef*
G36*
X128587351Y-90290361D02*
G01*
X128594632Y-90291441D01*
X128601771Y-90293229D01*
X128608701Y-90295709D01*
X128615355Y-90298856D01*
X128621668Y-90302640D01*
X128627579Y-90307024D01*
X128633033Y-90311967D01*
X128637976Y-90317421D01*
X128642360Y-90323332D01*
X128646144Y-90329645D01*
X128649291Y-90336299D01*
X128651771Y-90343229D01*
X128653559Y-90350368D01*
X128654639Y-90357649D01*
X128655000Y-90365000D01*
X128655000Y-90515000D01*
X128654639Y-90522351D01*
X128653559Y-90529632D01*
X128651771Y-90536771D01*
X128649291Y-90543701D01*
X128646144Y-90550355D01*
X128642360Y-90556668D01*
X128637976Y-90562579D01*
X128633033Y-90568033D01*
X128627579Y-90572976D01*
X128621668Y-90577360D01*
X128615355Y-90581144D01*
X128608701Y-90584291D01*
X128601771Y-90586771D01*
X128594632Y-90588559D01*
X128587351Y-90589639D01*
X128580000Y-90590000D01*
X127280000Y-90590000D01*
X127272649Y-90589639D01*
X127265368Y-90588559D01*
X127258229Y-90586771D01*
X127251299Y-90584291D01*
X127244645Y-90581144D01*
X127238332Y-90577360D01*
X127232421Y-90572976D01*
X127226967Y-90568033D01*
X127222024Y-90562579D01*
X127217640Y-90556668D01*
X127213856Y-90550355D01*
X127210709Y-90543701D01*
X127208229Y-90536771D01*
X127206441Y-90529632D01*
X127205361Y-90522351D01*
X127205000Y-90515000D01*
X127205000Y-90365000D01*
X127205361Y-90357649D01*
X127206441Y-90350368D01*
X127208229Y-90343229D01*
X127210709Y-90336299D01*
X127213856Y-90329645D01*
X127217640Y-90323332D01*
X127222024Y-90317421D01*
X127226967Y-90311967D01*
X127232421Y-90307024D01*
X127238332Y-90302640D01*
X127244645Y-90298856D01*
X127251299Y-90295709D01*
X127258229Y-90293229D01*
X127265368Y-90291441D01*
X127272649Y-90290361D01*
X127280000Y-90290000D01*
X128580000Y-90290000D01*
X128587351Y-90290361D01*
G37*
G04 #@! TD.AperFunction*
G04 #@! TA.AperFunction,SMDPad,CuDef*
G36*
X128587351Y-90790361D02*
G01*
X128594632Y-90791441D01*
X128601771Y-90793229D01*
X128608701Y-90795709D01*
X128615355Y-90798856D01*
X128621668Y-90802640D01*
X128627579Y-90807024D01*
X128633033Y-90811967D01*
X128637976Y-90817421D01*
X128642360Y-90823332D01*
X128646144Y-90829645D01*
X128649291Y-90836299D01*
X128651771Y-90843229D01*
X128653559Y-90850368D01*
X128654639Y-90857649D01*
X128655000Y-90865000D01*
X128655000Y-91015000D01*
X128654639Y-91022351D01*
X128653559Y-91029632D01*
X128651771Y-91036771D01*
X128649291Y-91043701D01*
X128646144Y-91050355D01*
X128642360Y-91056668D01*
X128637976Y-91062579D01*
X128633033Y-91068033D01*
X128627579Y-91072976D01*
X128621668Y-91077360D01*
X128615355Y-91081144D01*
X128608701Y-91084291D01*
X128601771Y-91086771D01*
X128594632Y-91088559D01*
X128587351Y-91089639D01*
X128580000Y-91090000D01*
X127280000Y-91090000D01*
X127272649Y-91089639D01*
X127265368Y-91088559D01*
X127258229Y-91086771D01*
X127251299Y-91084291D01*
X127244645Y-91081144D01*
X127238332Y-91077360D01*
X127232421Y-91072976D01*
X127226967Y-91068033D01*
X127222024Y-91062579D01*
X127217640Y-91056668D01*
X127213856Y-91050355D01*
X127210709Y-91043701D01*
X127208229Y-91036771D01*
X127206441Y-91029632D01*
X127205361Y-91022351D01*
X127205000Y-91015000D01*
X127205000Y-90865000D01*
X127205361Y-90857649D01*
X127206441Y-90850368D01*
X127208229Y-90843229D01*
X127210709Y-90836299D01*
X127213856Y-90829645D01*
X127217640Y-90823332D01*
X127222024Y-90817421D01*
X127226967Y-90811967D01*
X127232421Y-90807024D01*
X127238332Y-90802640D01*
X127244645Y-90798856D01*
X127251299Y-90795709D01*
X127258229Y-90793229D01*
X127265368Y-90791441D01*
X127272649Y-90790361D01*
X127280000Y-90790000D01*
X128580000Y-90790000D01*
X128587351Y-90790361D01*
G37*
G04 #@! TD.AperFunction*
G04 #@! TA.AperFunction,SMDPad,CuDef*
G36*
X128587351Y-91290361D02*
G01*
X128594632Y-91291441D01*
X128601771Y-91293229D01*
X128608701Y-91295709D01*
X128615355Y-91298856D01*
X128621668Y-91302640D01*
X128627579Y-91307024D01*
X128633033Y-91311967D01*
X128637976Y-91317421D01*
X128642360Y-91323332D01*
X128646144Y-91329645D01*
X128649291Y-91336299D01*
X128651771Y-91343229D01*
X128653559Y-91350368D01*
X128654639Y-91357649D01*
X128655000Y-91365000D01*
X128655000Y-91515000D01*
X128654639Y-91522351D01*
X128653559Y-91529632D01*
X128651771Y-91536771D01*
X128649291Y-91543701D01*
X128646144Y-91550355D01*
X128642360Y-91556668D01*
X128637976Y-91562579D01*
X128633033Y-91568033D01*
X128627579Y-91572976D01*
X128621668Y-91577360D01*
X128615355Y-91581144D01*
X128608701Y-91584291D01*
X128601771Y-91586771D01*
X128594632Y-91588559D01*
X128587351Y-91589639D01*
X128580000Y-91590000D01*
X127280000Y-91590000D01*
X127272649Y-91589639D01*
X127265368Y-91588559D01*
X127258229Y-91586771D01*
X127251299Y-91584291D01*
X127244645Y-91581144D01*
X127238332Y-91577360D01*
X127232421Y-91572976D01*
X127226967Y-91568033D01*
X127222024Y-91562579D01*
X127217640Y-91556668D01*
X127213856Y-91550355D01*
X127210709Y-91543701D01*
X127208229Y-91536771D01*
X127206441Y-91529632D01*
X127205361Y-91522351D01*
X127205000Y-91515000D01*
X127205000Y-91365000D01*
X127205361Y-91357649D01*
X127206441Y-91350368D01*
X127208229Y-91343229D01*
X127210709Y-91336299D01*
X127213856Y-91329645D01*
X127217640Y-91323332D01*
X127222024Y-91317421D01*
X127226967Y-91311967D01*
X127232421Y-91307024D01*
X127238332Y-91302640D01*
X127244645Y-91298856D01*
X127251299Y-91295709D01*
X127258229Y-91293229D01*
X127265368Y-91291441D01*
X127272649Y-91290361D01*
X127280000Y-91290000D01*
X128580000Y-91290000D01*
X128587351Y-91290361D01*
G37*
G04 #@! TD.AperFunction*
G04 #@! TA.AperFunction,SMDPad,CuDef*
G36*
X128587351Y-91790361D02*
G01*
X128594632Y-91791441D01*
X128601771Y-91793229D01*
X128608701Y-91795709D01*
X128615355Y-91798856D01*
X128621668Y-91802640D01*
X128627579Y-91807024D01*
X128633033Y-91811967D01*
X128637976Y-91817421D01*
X128642360Y-91823332D01*
X128646144Y-91829645D01*
X128649291Y-91836299D01*
X128651771Y-91843229D01*
X128653559Y-91850368D01*
X128654639Y-91857649D01*
X128655000Y-91865000D01*
X128655000Y-92015000D01*
X128654639Y-92022351D01*
X128653559Y-92029632D01*
X128651771Y-92036771D01*
X128649291Y-92043701D01*
X128646144Y-92050355D01*
X128642360Y-92056668D01*
X128637976Y-92062579D01*
X128633033Y-92068033D01*
X128627579Y-92072976D01*
X128621668Y-92077360D01*
X128615355Y-92081144D01*
X128608701Y-92084291D01*
X128601771Y-92086771D01*
X128594632Y-92088559D01*
X128587351Y-92089639D01*
X128580000Y-92090000D01*
X127280000Y-92090000D01*
X127272649Y-92089639D01*
X127265368Y-92088559D01*
X127258229Y-92086771D01*
X127251299Y-92084291D01*
X127244645Y-92081144D01*
X127238332Y-92077360D01*
X127232421Y-92072976D01*
X127226967Y-92068033D01*
X127222024Y-92062579D01*
X127217640Y-92056668D01*
X127213856Y-92050355D01*
X127210709Y-92043701D01*
X127208229Y-92036771D01*
X127206441Y-92029632D01*
X127205361Y-92022351D01*
X127205000Y-92015000D01*
X127205000Y-91865000D01*
X127205361Y-91857649D01*
X127206441Y-91850368D01*
X127208229Y-91843229D01*
X127210709Y-91836299D01*
X127213856Y-91829645D01*
X127217640Y-91823332D01*
X127222024Y-91817421D01*
X127226967Y-91811967D01*
X127232421Y-91807024D01*
X127238332Y-91802640D01*
X127244645Y-91798856D01*
X127251299Y-91795709D01*
X127258229Y-91793229D01*
X127265368Y-91791441D01*
X127272649Y-91790361D01*
X127280000Y-91790000D01*
X128580000Y-91790000D01*
X128587351Y-91790361D01*
G37*
G04 #@! TD.AperFunction*
G04 #@! TA.AperFunction,SMDPad,CuDef*
G36*
X128587351Y-92290361D02*
G01*
X128594632Y-92291441D01*
X128601771Y-92293229D01*
X128608701Y-92295709D01*
X128615355Y-92298856D01*
X128621668Y-92302640D01*
X128627579Y-92307024D01*
X128633033Y-92311967D01*
X128637976Y-92317421D01*
X128642360Y-92323332D01*
X128646144Y-92329645D01*
X128649291Y-92336299D01*
X128651771Y-92343229D01*
X128653559Y-92350368D01*
X128654639Y-92357649D01*
X128655000Y-92365000D01*
X128655000Y-92515000D01*
X128654639Y-92522351D01*
X128653559Y-92529632D01*
X128651771Y-92536771D01*
X128649291Y-92543701D01*
X128646144Y-92550355D01*
X128642360Y-92556668D01*
X128637976Y-92562579D01*
X128633033Y-92568033D01*
X128627579Y-92572976D01*
X128621668Y-92577360D01*
X128615355Y-92581144D01*
X128608701Y-92584291D01*
X128601771Y-92586771D01*
X128594632Y-92588559D01*
X128587351Y-92589639D01*
X128580000Y-92590000D01*
X127280000Y-92590000D01*
X127272649Y-92589639D01*
X127265368Y-92588559D01*
X127258229Y-92586771D01*
X127251299Y-92584291D01*
X127244645Y-92581144D01*
X127238332Y-92577360D01*
X127232421Y-92572976D01*
X127226967Y-92568033D01*
X127222024Y-92562579D01*
X127217640Y-92556668D01*
X127213856Y-92550355D01*
X127210709Y-92543701D01*
X127208229Y-92536771D01*
X127206441Y-92529632D01*
X127205361Y-92522351D01*
X127205000Y-92515000D01*
X127205000Y-92365000D01*
X127205361Y-92357649D01*
X127206441Y-92350368D01*
X127208229Y-92343229D01*
X127210709Y-92336299D01*
X127213856Y-92329645D01*
X127217640Y-92323332D01*
X127222024Y-92317421D01*
X127226967Y-92311967D01*
X127232421Y-92307024D01*
X127238332Y-92302640D01*
X127244645Y-92298856D01*
X127251299Y-92295709D01*
X127258229Y-92293229D01*
X127265368Y-92291441D01*
X127272649Y-92290361D01*
X127280000Y-92290000D01*
X128580000Y-92290000D01*
X128587351Y-92290361D01*
G37*
G04 #@! TD.AperFunction*
G04 #@! TA.AperFunction,SMDPad,CuDef*
G36*
X118124504Y-92216204D02*
G01*
X118148773Y-92219804D01*
X118172571Y-92225765D01*
X118195671Y-92234030D01*
X118217849Y-92244520D01*
X118238893Y-92257133D01*
X118258598Y-92271747D01*
X118276777Y-92288223D01*
X118293253Y-92306402D01*
X118307867Y-92326107D01*
X118320480Y-92347151D01*
X118330970Y-92369329D01*
X118339235Y-92392429D01*
X118345196Y-92416227D01*
X118348796Y-92440496D01*
X118350000Y-92465000D01*
X118350000Y-93390000D01*
X118348796Y-93414504D01*
X118345196Y-93438773D01*
X118339235Y-93462571D01*
X118330970Y-93485671D01*
X118320480Y-93507849D01*
X118307867Y-93528893D01*
X118293253Y-93548598D01*
X118276777Y-93566777D01*
X118258598Y-93583253D01*
X118238893Y-93597867D01*
X118217849Y-93610480D01*
X118195671Y-93620970D01*
X118172571Y-93629235D01*
X118148773Y-93635196D01*
X118124504Y-93638796D01*
X118100000Y-93640000D01*
X116850000Y-93640000D01*
X116825496Y-93638796D01*
X116801227Y-93635196D01*
X116777429Y-93629235D01*
X116754329Y-93620970D01*
X116732151Y-93610480D01*
X116711107Y-93597867D01*
X116691402Y-93583253D01*
X116673223Y-93566777D01*
X116656747Y-93548598D01*
X116642133Y-93528893D01*
X116629520Y-93507849D01*
X116619030Y-93485671D01*
X116610765Y-93462571D01*
X116604804Y-93438773D01*
X116601204Y-93414504D01*
X116600000Y-93390000D01*
X116600000Y-92465000D01*
X116601204Y-92440496D01*
X116604804Y-92416227D01*
X116610765Y-92392429D01*
X116619030Y-92369329D01*
X116629520Y-92347151D01*
X116642133Y-92326107D01*
X116656747Y-92306402D01*
X116673223Y-92288223D01*
X116691402Y-92271747D01*
X116711107Y-92257133D01*
X116732151Y-92244520D01*
X116754329Y-92234030D01*
X116777429Y-92225765D01*
X116801227Y-92219804D01*
X116825496Y-92216204D01*
X116850000Y-92215000D01*
X118100000Y-92215000D01*
X118124504Y-92216204D01*
G37*
G04 #@! TD.AperFunction*
G04 #@! TA.AperFunction,SMDPad,CuDef*
G36*
X118124504Y-89241204D02*
G01*
X118148773Y-89244804D01*
X118172571Y-89250765D01*
X118195671Y-89259030D01*
X118217849Y-89269520D01*
X118238893Y-89282133D01*
X118258598Y-89296747D01*
X118276777Y-89313223D01*
X118293253Y-89331402D01*
X118307867Y-89351107D01*
X118320480Y-89372151D01*
X118330970Y-89394329D01*
X118339235Y-89417429D01*
X118345196Y-89441227D01*
X118348796Y-89465496D01*
X118350000Y-89490000D01*
X118350000Y-90415000D01*
X118348796Y-90439504D01*
X118345196Y-90463773D01*
X118339235Y-90487571D01*
X118330970Y-90510671D01*
X118320480Y-90532849D01*
X118307867Y-90553893D01*
X118293253Y-90573598D01*
X118276777Y-90591777D01*
X118258598Y-90608253D01*
X118238893Y-90622867D01*
X118217849Y-90635480D01*
X118195671Y-90645970D01*
X118172571Y-90654235D01*
X118148773Y-90660196D01*
X118124504Y-90663796D01*
X118100000Y-90665000D01*
X116850000Y-90665000D01*
X116825496Y-90663796D01*
X116801227Y-90660196D01*
X116777429Y-90654235D01*
X116754329Y-90645970D01*
X116732151Y-90635480D01*
X116711107Y-90622867D01*
X116691402Y-90608253D01*
X116673223Y-90591777D01*
X116656747Y-90573598D01*
X116642133Y-90553893D01*
X116629520Y-90532849D01*
X116619030Y-90510671D01*
X116610765Y-90487571D01*
X116604804Y-90463773D01*
X116601204Y-90439504D01*
X116600000Y-90415000D01*
X116600000Y-89490000D01*
X116601204Y-89465496D01*
X116604804Y-89441227D01*
X116610765Y-89417429D01*
X116619030Y-89394329D01*
X116629520Y-89372151D01*
X116642133Y-89351107D01*
X116656747Y-89331402D01*
X116673223Y-89313223D01*
X116691402Y-89296747D01*
X116711107Y-89282133D01*
X116732151Y-89269520D01*
X116754329Y-89259030D01*
X116777429Y-89250765D01*
X116801227Y-89244804D01*
X116825496Y-89241204D01*
X116850000Y-89240000D01*
X118100000Y-89240000D01*
X118124504Y-89241204D01*
G37*
G04 #@! TD.AperFunction*
D13*
X111760000Y-93980000D03*
D14*
X111760000Y-88900000D03*
D15*
X132080000Y-95250000D03*
X132080000Y-92710000D03*
X132080000Y-90170000D03*
D16*
X132080000Y-87630000D03*
G04 #@! TA.AperFunction,SMDPad,CuDef*
D12*
G36*
X128744505Y-88081204D02*
G01*
X128768773Y-88084804D01*
X128792572Y-88090765D01*
X128815671Y-88099030D01*
X128837850Y-88109520D01*
X128858893Y-88122132D01*
X128878599Y-88136747D01*
X128896777Y-88153223D01*
X128913253Y-88171401D01*
X128927868Y-88191107D01*
X128940480Y-88212150D01*
X128950970Y-88234329D01*
X128959235Y-88257428D01*
X128965196Y-88281227D01*
X128968796Y-88305495D01*
X128970000Y-88329999D01*
X128970000Y-88980001D01*
X128968796Y-89004505D01*
X128965196Y-89028773D01*
X128959235Y-89052572D01*
X128950970Y-89075671D01*
X128940480Y-89097850D01*
X128927868Y-89118893D01*
X128913253Y-89138599D01*
X128896777Y-89156777D01*
X128878599Y-89173253D01*
X128858893Y-89187868D01*
X128837850Y-89200480D01*
X128815671Y-89210970D01*
X128792572Y-89219235D01*
X128768773Y-89225196D01*
X128744505Y-89228796D01*
X128720001Y-89230000D01*
X127819999Y-89230000D01*
X127795495Y-89228796D01*
X127771227Y-89225196D01*
X127747428Y-89219235D01*
X127724329Y-89210970D01*
X127702150Y-89200480D01*
X127681107Y-89187868D01*
X127661401Y-89173253D01*
X127643223Y-89156777D01*
X127626747Y-89138599D01*
X127612132Y-89118893D01*
X127599520Y-89097850D01*
X127589030Y-89075671D01*
X127580765Y-89052572D01*
X127574804Y-89028773D01*
X127571204Y-89004505D01*
X127570000Y-88980001D01*
X127570000Y-88329999D01*
X127571204Y-88305495D01*
X127574804Y-88281227D01*
X127580765Y-88257428D01*
X127589030Y-88234329D01*
X127599520Y-88212150D01*
X127612132Y-88191107D01*
X127626747Y-88171401D01*
X127643223Y-88153223D01*
X127661401Y-88136747D01*
X127681107Y-88122132D01*
X127702150Y-88109520D01*
X127724329Y-88099030D01*
X127747428Y-88090765D01*
X127771227Y-88084804D01*
X127795495Y-88081204D01*
X127819999Y-88080000D01*
X128720001Y-88080000D01*
X128744505Y-88081204D01*
G37*
G04 #@! TD.AperFunction*
G04 #@! TA.AperFunction,SMDPad,CuDef*
G36*
X128744505Y-86031204D02*
G01*
X128768773Y-86034804D01*
X128792572Y-86040765D01*
X128815671Y-86049030D01*
X128837850Y-86059520D01*
X128858893Y-86072132D01*
X128878599Y-86086747D01*
X128896777Y-86103223D01*
X128913253Y-86121401D01*
X128927868Y-86141107D01*
X128940480Y-86162150D01*
X128950970Y-86184329D01*
X128959235Y-86207428D01*
X128965196Y-86231227D01*
X128968796Y-86255495D01*
X128970000Y-86279999D01*
X128970000Y-86930001D01*
X128968796Y-86954505D01*
X128965196Y-86978773D01*
X128959235Y-87002572D01*
X128950970Y-87025671D01*
X128940480Y-87047850D01*
X128927868Y-87068893D01*
X128913253Y-87088599D01*
X128896777Y-87106777D01*
X128878599Y-87123253D01*
X128858893Y-87137868D01*
X128837850Y-87150480D01*
X128815671Y-87160970D01*
X128792572Y-87169235D01*
X128768773Y-87175196D01*
X128744505Y-87178796D01*
X128720001Y-87180000D01*
X127819999Y-87180000D01*
X127795495Y-87178796D01*
X127771227Y-87175196D01*
X127747428Y-87169235D01*
X127724329Y-87160970D01*
X127702150Y-87150480D01*
X127681107Y-87137868D01*
X127661401Y-87123253D01*
X127643223Y-87106777D01*
X127626747Y-87088599D01*
X127612132Y-87068893D01*
X127599520Y-87047850D01*
X127589030Y-87025671D01*
X127580765Y-87002572D01*
X127574804Y-86978773D01*
X127571204Y-86954505D01*
X127570000Y-86930001D01*
X127570000Y-86279999D01*
X127571204Y-86255495D01*
X127574804Y-86231227D01*
X127580765Y-86207428D01*
X127589030Y-86184329D01*
X127599520Y-86162150D01*
X127612132Y-86141107D01*
X127626747Y-86121401D01*
X127643223Y-86103223D01*
X127661401Y-86086747D01*
X127681107Y-86072132D01*
X127702150Y-86059520D01*
X127724329Y-86049030D01*
X127747428Y-86040765D01*
X127771227Y-86034804D01*
X127795495Y-86031204D01*
X127819999Y-86030000D01*
X128720001Y-86030000D01*
X128744505Y-86031204D01*
G37*
G04 #@! TD.AperFunction*
D17*
X134620000Y-90560000D03*
X127000000Y-97282000D03*
X126365000Y-89662000D03*
X127000000Y-93250000D03*
X134620000Y-88510000D03*
X127000000Y-95250000D03*
X125984000Y-91821000D03*
D18*
X130565000Y-88655000D02*
X132080000Y-90170000D01*
X128270000Y-88655000D02*
X130565000Y-88655000D01*
X125315000Y-88655000D02*
X128270000Y-88655000D01*
X123530000Y-90440000D02*
X125315000Y-88655000D01*
X132080000Y-90170000D02*
X134230000Y-90170000D01*
X134230000Y-90170000D02*
X134620000Y-90560000D01*
X128270000Y-87180000D02*
X128270000Y-86605000D01*
X128720000Y-87630000D02*
X128270000Y-87180000D01*
X132080000Y-87630000D02*
X128720000Y-87630000D01*
X125468000Y-90940000D02*
X126873000Y-89535000D01*
X123530000Y-90940000D02*
X125468000Y-90940000D01*
X123530000Y-90940000D02*
X122309000Y-90940000D01*
X122309000Y-90940000D02*
X121539000Y-90170000D01*
X119040000Y-93980000D02*
X119380000Y-93640000D01*
X119380000Y-89240000D02*
X119040000Y-88900000D01*
X120650000Y-89280000D02*
X120650000Y-87630000D01*
X121539000Y-90169000D02*
X120650000Y-89280000D01*
X121539000Y-90170000D02*
X121539000Y-90169000D01*
X128980010Y-91199308D02*
X128720702Y-90940000D01*
X128720702Y-90940000D02*
X127930000Y-90940000D01*
X128980010Y-92150010D02*
X128980010Y-91199308D01*
X130810000Y-93980000D02*
X127730000Y-93980000D01*
X127730000Y-93980000D02*
X127000000Y-93250000D01*
X130810000Y-93980000D02*
X128980010Y-92150010D01*
X132080000Y-95250000D02*
X130810000Y-93980000D01*
X129810000Y-90440000D02*
X127930000Y-90440000D01*
X132080000Y-92710000D02*
X129810000Y-90440000D01*
X133282081Y-92710000D02*
X132080000Y-92710000D01*
X133543002Y-92710000D02*
X133282081Y-92710000D01*
X135345001Y-90908001D02*
X133543002Y-92710000D01*
X135345001Y-89810001D02*
X135345001Y-90908001D01*
X134620000Y-89085000D02*
X135345001Y-89810001D01*
X134620000Y-88510000D02*
X134620000Y-89085000D01*
X126274999Y-94524999D02*
X127000000Y-95250000D01*
X126274999Y-92901999D02*
X126274999Y-94524999D01*
X126736998Y-92440000D02*
X126274999Y-92901999D01*
X127930000Y-92440000D02*
X126736998Y-92440000D01*
X126103000Y-91940000D02*
X127930000Y-91940000D01*
X125984000Y-91821000D02*
X126103000Y-91940000D01*
X117475000Y-92215000D02*
X117475000Y-92927500D01*
X117750000Y-91940000D02*
X117475000Y-92215000D01*
X123530000Y-91940000D02*
X117750000Y-91940000D01*
D19*
X117475000Y-92927500D02*
X116422500Y-93980000D01*
X116422500Y-93980000D02*
X111760000Y-93980000D01*
D18*
X124320702Y-91440000D02*
X124255000Y-91440000D01*
X124580010Y-91699308D02*
X124320702Y-91440000D01*
X124580010Y-92180692D02*
X124580010Y-91699308D01*
X124255000Y-91440000D02*
X123530000Y-91440000D01*
X124320702Y-92440000D02*
X124580010Y-92180692D01*
X123530000Y-92440000D02*
X124320702Y-92440000D01*
X118667500Y-89952500D02*
X117475000Y-89952500D01*
X123530000Y-91440000D02*
X120155000Y-91440000D01*
X120155000Y-91440000D02*
X118667500Y-89952500D01*
X112812500Y-89952500D02*
X111760000Y-88900000D01*
D19*
X116205000Y-88900000D02*
X111542500Y-88900000D01*
D18*
X117475000Y-89952500D02*
X117475000Y-89240000D01*
D19*
X117475000Y-89952500D02*
X116205000Y-88900000D01*
D20*
G36*
X136500000Y-98400000D02*
G01*
X103530000Y-98400000D01*
X103530000Y-87400000D01*
X109621928Y-87400000D01*
X109621928Y-90400000D01*
X109634188Y-90524482D01*
X109670498Y-90644180D01*
X109729463Y-90754494D01*
X109808815Y-90851185D01*
X109905506Y-90930537D01*
X110015820Y-90989502D01*
X110135518Y-91025812D01*
X110260000Y-91038072D01*
X113260000Y-91038072D01*
X113384482Y-91025812D01*
X113504180Y-90989502D01*
X113614494Y-90930537D01*
X113711185Y-90851185D01*
X113790537Y-90754494D01*
X113849502Y-90644180D01*
X113882621Y-90535000D01*
X115615561Y-90535000D01*
X116208313Y-91026238D01*
X116222038Y-91042962D01*
X116356614Y-91153405D01*
X116371106Y-91161151D01*
X116493559Y-91262633D01*
X116693593Y-91397685D01*
X116791647Y-91438853D01*
X116562247Y-91561470D01*
X116375677Y-91714585D01*
X116371766Y-91718496D01*
X116356614Y-91726595D01*
X116222038Y-91837038D01*
X116111595Y-91971614D01*
X116103496Y-91986766D01*
X115745262Y-92345000D01*
X113144346Y-92345000D01*
X113120983Y-92321637D01*
X112771302Y-92087988D01*
X112382756Y-91927047D01*
X111970279Y-91845000D01*
X111549721Y-91845000D01*
X111137244Y-91927047D01*
X110748698Y-92087988D01*
X110399017Y-92321637D01*
X110101637Y-92619017D01*
X109867988Y-92968698D01*
X109707047Y-93357244D01*
X109625000Y-93769721D01*
X109625000Y-94190279D01*
X109707047Y-94602756D01*
X109867988Y-94991302D01*
X110101637Y-95340983D01*
X110399017Y-95638363D01*
X110748698Y-95872012D01*
X111137244Y-96032953D01*
X111549721Y-96115000D01*
X111970279Y-96115000D01*
X112382756Y-96032953D01*
X112771302Y-95872012D01*
X113120983Y-95638363D01*
X113144346Y-95615000D01*
X116342181Y-95615000D01*
X116422500Y-95622911D01*
X116502819Y-95615000D01*
X116502822Y-95615000D01*
X116743016Y-95591343D01*
X117051215Y-95497852D01*
X117335252Y-95346031D01*
X117584214Y-95141714D01*
X117635425Y-95079313D01*
X118578234Y-94136504D01*
X118593386Y-94128405D01*
X118727962Y-94017962D01*
X118838405Y-93883386D01*
X118920472Y-93729850D01*
X118947281Y-93641472D01*
X118992852Y-93556215D01*
X119086343Y-93248017D01*
X119117911Y-92927500D01*
X119095504Y-92700000D01*
X122194549Y-92700000D01*
X122221207Y-92787881D01*
X122287102Y-92911162D01*
X122375782Y-93019218D01*
X122483838Y-93107898D01*
X122607119Y-93173793D01*
X122740887Y-93214371D01*
X122880000Y-93228072D01*
X124180000Y-93228072D01*
X124319113Y-93214371D01*
X124370552Y-93198767D01*
X124469688Y-93189003D01*
X124612949Y-93145546D01*
X124744978Y-93074974D01*
X124860703Y-92980001D01*
X124884506Y-92950997D01*
X125091008Y-92744495D01*
X125120011Y-92720693D01*
X125214984Y-92604968D01*
X125246080Y-92546791D01*
X125324226Y-92624937D01*
X125493744Y-92738205D01*
X125526387Y-92751726D01*
X125525996Y-92753014D01*
X125514999Y-92864667D01*
X125514999Y-92864677D01*
X125511323Y-92901999D01*
X125514999Y-92939322D01*
X125515000Y-94487667D01*
X125511323Y-94524999D01*
X125515000Y-94562332D01*
X125518982Y-94602756D01*
X125525997Y-94673984D01*
X125569453Y-94817245D01*
X125640025Y-94949275D01*
X125711200Y-95036001D01*
X125734999Y-95065000D01*
X125763997Y-95088798D01*
X125965000Y-95289801D01*
X125965000Y-95351939D01*
X126004774Y-95551898D01*
X126082795Y-95740256D01*
X126196063Y-95909774D01*
X126340226Y-96053937D01*
X126509744Y-96167205D01*
X126698102Y-96245226D01*
X126898061Y-96285000D01*
X127101939Y-96285000D01*
X127301898Y-96245226D01*
X127490256Y-96167205D01*
X127659774Y-96053937D01*
X127803937Y-95909774D01*
X127917205Y-95740256D01*
X127995226Y-95551898D01*
X128035000Y-95351939D01*
X128035000Y-95148061D01*
X127995226Y-94948102D01*
X127917205Y-94759744D01*
X127904013Y-94740000D01*
X130495199Y-94740000D01*
X130638791Y-94883592D01*
X130595000Y-95103740D01*
X130595000Y-95396260D01*
X130652068Y-95683158D01*
X130764010Y-95953411D01*
X130926525Y-96196632D01*
X131133368Y-96403475D01*
X131376589Y-96565990D01*
X131646842Y-96677932D01*
X131933740Y-96735000D01*
X132226260Y-96735000D01*
X132513158Y-96677932D01*
X132783411Y-96565990D01*
X133026632Y-96403475D01*
X133233475Y-96196632D01*
X133395990Y-95953411D01*
X133507932Y-95683158D01*
X133565000Y-95396260D01*
X133565000Y-95103740D01*
X133507932Y-94816842D01*
X133395990Y-94546589D01*
X133233475Y-94303368D01*
X133026632Y-94096525D01*
X132852240Y-93980000D01*
X133026632Y-93863475D01*
X133233475Y-93656632D01*
X133358178Y-93470000D01*
X133505680Y-93470000D01*
X133543002Y-93473676D01*
X133580324Y-93470000D01*
X133580335Y-93470000D01*
X133691988Y-93459003D01*
X133835249Y-93415546D01*
X133967278Y-93344974D01*
X134083003Y-93250001D01*
X134106805Y-93220998D01*
X135856009Y-91471796D01*
X135885002Y-91448002D01*
X135908796Y-91419009D01*
X135908800Y-91419005D01*
X135979974Y-91332278D01*
X135984572Y-91323676D01*
X136050547Y-91200248D01*
X136094004Y-91056987D01*
X136105001Y-90945334D01*
X136105001Y-90945325D01*
X136108677Y-90908002D01*
X136105001Y-90870679D01*
X136105001Y-89847323D01*
X136108677Y-89810000D01*
X136105001Y-89772677D01*
X136105001Y-89772668D01*
X136094004Y-89661015D01*
X136050547Y-89517754D01*
X135979975Y-89385725D01*
X135885002Y-89270000D01*
X135856005Y-89246203D01*
X135558543Y-88948742D01*
X135615226Y-88811898D01*
X135655000Y-88611939D01*
X135655000Y-88408061D01*
X135615226Y-88208102D01*
X135537205Y-88019744D01*
X135423937Y-87850226D01*
X135279774Y-87706063D01*
X135110256Y-87592795D01*
X134921898Y-87514774D01*
X134721939Y-87475000D01*
X134518061Y-87475000D01*
X134318102Y-87514774D01*
X134129744Y-87592795D01*
X133960226Y-87706063D01*
X133816063Y-87850226D01*
X133702795Y-88019744D01*
X133624774Y-88208102D01*
X133585000Y-88408061D01*
X133585000Y-88611939D01*
X133624774Y-88811898D01*
X133702795Y-89000256D01*
X133816063Y-89169774D01*
X133869983Y-89223694D01*
X133870997Y-89233986D01*
X133914454Y-89377247D01*
X133931961Y-89410000D01*
X133358178Y-89410000D01*
X133233475Y-89223368D01*
X133026632Y-89016525D01*
X132783411Y-88854010D01*
X132513158Y-88742068D01*
X132226260Y-88685000D01*
X131933740Y-88685000D01*
X131713592Y-88728791D01*
X131128804Y-88144003D01*
X131105001Y-88114999D01*
X130989276Y-88020026D01*
X130857247Y-87949454D01*
X130713986Y-87905997D01*
X130602333Y-87895000D01*
X130602322Y-87895000D01*
X130565000Y-87891324D01*
X130527678Y-87895000D01*
X129489614Y-87895000D01*
X129458405Y-87836613D01*
X129347962Y-87702038D01*
X129213387Y-87591595D01*
X129059851Y-87509528D01*
X128893255Y-87458992D01*
X128720001Y-87441928D01*
X127819999Y-87441928D01*
X127646745Y-87458992D01*
X127480149Y-87509528D01*
X127326613Y-87591595D01*
X127192038Y-87702038D01*
X127081595Y-87836613D01*
X127050386Y-87895000D01*
X125352322Y-87895000D01*
X125314999Y-87891324D01*
X125277676Y-87895000D01*
X125277667Y-87895000D01*
X125166014Y-87905997D01*
X125022753Y-87949454D01*
X124890724Y-88020026D01*
X124774999Y-88114999D01*
X124751201Y-88143997D01*
X123243271Y-89651928D01*
X122880000Y-89651928D01*
X122740887Y-89665629D01*
X122607119Y-89706207D01*
X122483838Y-89772102D01*
X122375782Y-89860782D01*
X122287102Y-89968838D01*
X122221207Y-90092119D01*
X122180629Y-90225887D01*
X122166928Y-90365000D01*
X122166928Y-90515000D01*
X122180629Y-90654113D01*
X122188482Y-90680000D01*
X120469802Y-90680000D01*
X119231304Y-89441503D01*
X119207501Y-89412499D01*
X119091776Y-89317526D01*
X118959747Y-89246954D01*
X118951969Y-89244594D01*
X118940915Y-89217543D01*
X118920472Y-89150150D01*
X118838405Y-88996614D01*
X118727962Y-88862038D01*
X118593386Y-88751595D01*
X118578892Y-88743848D01*
X117369232Y-87741354D01*
X117366714Y-87738286D01*
X117245036Y-87638428D01*
X117186440Y-87589867D01*
X117183193Y-87587675D01*
X117117752Y-87533969D01*
X117050029Y-87497771D01*
X116986405Y-87454815D01*
X116908373Y-87422053D01*
X116833715Y-87382148D01*
X116760234Y-87359858D01*
X116689449Y-87330139D01*
X116606521Y-87313230D01*
X116525516Y-87288657D01*
X116449101Y-87281131D01*
X116373876Y-87265792D01*
X116289238Y-87265386D01*
X116285322Y-87265000D01*
X116208887Y-87265000D01*
X116051814Y-87264246D01*
X116047926Y-87265000D01*
X113882621Y-87265000D01*
X113849502Y-87155820D01*
X113790537Y-87045506D01*
X113711185Y-86948815D01*
X113614494Y-86869463D01*
X113504180Y-86810498D01*
X113384482Y-86774188D01*
X113260000Y-86761928D01*
X110260000Y-86761928D01*
X110135518Y-86774188D01*
X110015820Y-86810498D01*
X109905506Y-86869463D01*
X109808815Y-86948815D01*
X109729463Y-87045506D01*
X109670498Y-87155820D01*
X109634188Y-87275518D01*
X109621928Y-87400000D01*
X103530000Y-87400000D01*
X103530000Y-84480000D01*
X136500001Y-84480000D01*
X136500000Y-98400000D01*
G37*
X136500000Y-98400000D02*
X103530000Y-98400000D01*
X103530000Y-87400000D01*
X109621928Y-87400000D01*
X109621928Y-90400000D01*
X109634188Y-90524482D01*
X109670498Y-90644180D01*
X109729463Y-90754494D01*
X109808815Y-90851185D01*
X109905506Y-90930537D01*
X110015820Y-90989502D01*
X110135518Y-91025812D01*
X110260000Y-91038072D01*
X113260000Y-91038072D01*
X113384482Y-91025812D01*
X113504180Y-90989502D01*
X113614494Y-90930537D01*
X113711185Y-90851185D01*
X113790537Y-90754494D01*
X113849502Y-90644180D01*
X113882621Y-90535000D01*
X115615561Y-90535000D01*
X116208313Y-91026238D01*
X116222038Y-91042962D01*
X116356614Y-91153405D01*
X116371106Y-91161151D01*
X116493559Y-91262633D01*
X116693593Y-91397685D01*
X116791647Y-91438853D01*
X116562247Y-91561470D01*
X116375677Y-91714585D01*
X116371766Y-91718496D01*
X116356614Y-91726595D01*
X116222038Y-91837038D01*
X116111595Y-91971614D01*
X116103496Y-91986766D01*
X115745262Y-92345000D01*
X113144346Y-92345000D01*
X113120983Y-92321637D01*
X112771302Y-92087988D01*
X112382756Y-91927047D01*
X111970279Y-91845000D01*
X111549721Y-91845000D01*
X111137244Y-91927047D01*
X110748698Y-92087988D01*
X110399017Y-92321637D01*
X110101637Y-92619017D01*
X109867988Y-92968698D01*
X109707047Y-93357244D01*
X109625000Y-93769721D01*
X109625000Y-94190279D01*
X109707047Y-94602756D01*
X109867988Y-94991302D01*
X110101637Y-95340983D01*
X110399017Y-95638363D01*
X110748698Y-95872012D01*
X111137244Y-96032953D01*
X111549721Y-96115000D01*
X111970279Y-96115000D01*
X112382756Y-96032953D01*
X112771302Y-95872012D01*
X113120983Y-95638363D01*
X113144346Y-95615000D01*
X116342181Y-95615000D01*
X116422500Y-95622911D01*
X116502819Y-95615000D01*
X116502822Y-95615000D01*
X116743016Y-95591343D01*
X117051215Y-95497852D01*
X117335252Y-95346031D01*
X117584214Y-95141714D01*
X117635425Y-95079313D01*
X118578234Y-94136504D01*
X118593386Y-94128405D01*
X118727962Y-94017962D01*
X118838405Y-93883386D01*
X118920472Y-93729850D01*
X118947281Y-93641472D01*
X118992852Y-93556215D01*
X119086343Y-93248017D01*
X119117911Y-92927500D01*
X119095504Y-92700000D01*
X122194549Y-92700000D01*
X122221207Y-92787881D01*
X122287102Y-92911162D01*
X122375782Y-93019218D01*
X122483838Y-93107898D01*
X122607119Y-93173793D01*
X122740887Y-93214371D01*
X122880000Y-93228072D01*
X124180000Y-93228072D01*
X124319113Y-93214371D01*
X124370552Y-93198767D01*
X124469688Y-93189003D01*
X124612949Y-93145546D01*
X124744978Y-93074974D01*
X124860703Y-92980001D01*
X124884506Y-92950997D01*
X125091008Y-92744495D01*
X125120011Y-92720693D01*
X125214984Y-92604968D01*
X125246080Y-92546791D01*
X125324226Y-92624937D01*
X125493744Y-92738205D01*
X125526387Y-92751726D01*
X125525996Y-92753014D01*
X125514999Y-92864667D01*
X125514999Y-92864677D01*
X125511323Y-92901999D01*
X125514999Y-92939322D01*
X125515000Y-94487667D01*
X125511323Y-94524999D01*
X125515000Y-94562332D01*
X125518982Y-94602756D01*
X125525997Y-94673984D01*
X125569453Y-94817245D01*
X125640025Y-94949275D01*
X125711200Y-95036001D01*
X125734999Y-95065000D01*
X125763997Y-95088798D01*
X125965000Y-95289801D01*
X125965000Y-95351939D01*
X126004774Y-95551898D01*
X126082795Y-95740256D01*
X126196063Y-95909774D01*
X126340226Y-96053937D01*
X126509744Y-96167205D01*
X126698102Y-96245226D01*
X126898061Y-96285000D01*
X127101939Y-96285000D01*
X127301898Y-96245226D01*
X127490256Y-96167205D01*
X127659774Y-96053937D01*
X127803937Y-95909774D01*
X127917205Y-95740256D01*
X127995226Y-95551898D01*
X128035000Y-95351939D01*
X128035000Y-95148061D01*
X127995226Y-94948102D01*
X127917205Y-94759744D01*
X127904013Y-94740000D01*
X130495199Y-94740000D01*
X130638791Y-94883592D01*
X130595000Y-95103740D01*
X130595000Y-95396260D01*
X130652068Y-95683158D01*
X130764010Y-95953411D01*
X130926525Y-96196632D01*
X131133368Y-96403475D01*
X131376589Y-96565990D01*
X131646842Y-96677932D01*
X131933740Y-96735000D01*
X132226260Y-96735000D01*
X132513158Y-96677932D01*
X132783411Y-96565990D01*
X133026632Y-96403475D01*
X133233475Y-96196632D01*
X133395990Y-95953411D01*
X133507932Y-95683158D01*
X133565000Y-95396260D01*
X133565000Y-95103740D01*
X133507932Y-94816842D01*
X133395990Y-94546589D01*
X133233475Y-94303368D01*
X133026632Y-94096525D01*
X132852240Y-93980000D01*
X133026632Y-93863475D01*
X133233475Y-93656632D01*
X133358178Y-93470000D01*
X133505680Y-93470000D01*
X133543002Y-93473676D01*
X133580324Y-93470000D01*
X133580335Y-93470000D01*
X133691988Y-93459003D01*
X133835249Y-93415546D01*
X133967278Y-93344974D01*
X134083003Y-93250001D01*
X134106805Y-93220998D01*
X135856009Y-91471796D01*
X135885002Y-91448002D01*
X135908796Y-91419009D01*
X135908800Y-91419005D01*
X135979974Y-91332278D01*
X135984572Y-91323676D01*
X136050547Y-91200248D01*
X136094004Y-91056987D01*
X136105001Y-90945334D01*
X136105001Y-90945325D01*
X136108677Y-90908002D01*
X136105001Y-90870679D01*
X136105001Y-89847323D01*
X136108677Y-89810000D01*
X136105001Y-89772677D01*
X136105001Y-89772668D01*
X136094004Y-89661015D01*
X136050547Y-89517754D01*
X135979975Y-89385725D01*
X135885002Y-89270000D01*
X135856005Y-89246203D01*
X135558543Y-88948742D01*
X135615226Y-88811898D01*
X135655000Y-88611939D01*
X135655000Y-88408061D01*
X135615226Y-88208102D01*
X135537205Y-88019744D01*
X135423937Y-87850226D01*
X135279774Y-87706063D01*
X135110256Y-87592795D01*
X134921898Y-87514774D01*
X134721939Y-87475000D01*
X134518061Y-87475000D01*
X134318102Y-87514774D01*
X134129744Y-87592795D01*
X133960226Y-87706063D01*
X133816063Y-87850226D01*
X133702795Y-88019744D01*
X133624774Y-88208102D01*
X133585000Y-88408061D01*
X133585000Y-88611939D01*
X133624774Y-88811898D01*
X133702795Y-89000256D01*
X133816063Y-89169774D01*
X133869983Y-89223694D01*
X133870997Y-89233986D01*
X133914454Y-89377247D01*
X133931961Y-89410000D01*
X133358178Y-89410000D01*
X133233475Y-89223368D01*
X133026632Y-89016525D01*
X132783411Y-88854010D01*
X132513158Y-88742068D01*
X132226260Y-88685000D01*
X131933740Y-88685000D01*
X131713592Y-88728791D01*
X131128804Y-88144003D01*
X131105001Y-88114999D01*
X130989276Y-88020026D01*
X130857247Y-87949454D01*
X130713986Y-87905997D01*
X130602333Y-87895000D01*
X130602322Y-87895000D01*
X130565000Y-87891324D01*
X130527678Y-87895000D01*
X129489614Y-87895000D01*
X129458405Y-87836613D01*
X129347962Y-87702038D01*
X129213387Y-87591595D01*
X129059851Y-87509528D01*
X128893255Y-87458992D01*
X128720001Y-87441928D01*
X127819999Y-87441928D01*
X127646745Y-87458992D01*
X127480149Y-87509528D01*
X127326613Y-87591595D01*
X127192038Y-87702038D01*
X127081595Y-87836613D01*
X127050386Y-87895000D01*
X125352322Y-87895000D01*
X125314999Y-87891324D01*
X125277676Y-87895000D01*
X125277667Y-87895000D01*
X125166014Y-87905997D01*
X125022753Y-87949454D01*
X124890724Y-88020026D01*
X124774999Y-88114999D01*
X124751201Y-88143997D01*
X123243271Y-89651928D01*
X122880000Y-89651928D01*
X122740887Y-89665629D01*
X122607119Y-89706207D01*
X122483838Y-89772102D01*
X122375782Y-89860782D01*
X122287102Y-89968838D01*
X122221207Y-90092119D01*
X122180629Y-90225887D01*
X122166928Y-90365000D01*
X122166928Y-90515000D01*
X122180629Y-90654113D01*
X122188482Y-90680000D01*
X120469802Y-90680000D01*
X119231304Y-89441503D01*
X119207501Y-89412499D01*
X119091776Y-89317526D01*
X118959747Y-89246954D01*
X118951969Y-89244594D01*
X118940915Y-89217543D01*
X118920472Y-89150150D01*
X118838405Y-88996614D01*
X118727962Y-88862038D01*
X118593386Y-88751595D01*
X118578892Y-88743848D01*
X117369232Y-87741354D01*
X117366714Y-87738286D01*
X117245036Y-87638428D01*
X117186440Y-87589867D01*
X117183193Y-87587675D01*
X117117752Y-87533969D01*
X117050029Y-87497771D01*
X116986405Y-87454815D01*
X116908373Y-87422053D01*
X116833715Y-87382148D01*
X116760234Y-87359858D01*
X116689449Y-87330139D01*
X116606521Y-87313230D01*
X116525516Y-87288657D01*
X116449101Y-87281131D01*
X116373876Y-87265792D01*
X116289238Y-87265386D01*
X116285322Y-87265000D01*
X116208887Y-87265000D01*
X116051814Y-87264246D01*
X116047926Y-87265000D01*
X113882621Y-87265000D01*
X113849502Y-87155820D01*
X113790537Y-87045506D01*
X113711185Y-86948815D01*
X113614494Y-86869463D01*
X113504180Y-86810498D01*
X113384482Y-86774188D01*
X113260000Y-86761928D01*
X110260000Y-86761928D01*
X110135518Y-86774188D01*
X110015820Y-86810498D01*
X109905506Y-86869463D01*
X109808815Y-86948815D01*
X109729463Y-87045506D01*
X109670498Y-87155820D01*
X109634188Y-87275518D01*
X109621928Y-87400000D01*
X103530000Y-87400000D01*
X103530000Y-84480000D01*
X136500001Y-84480000D01*
X136500000Y-98400000D01*
G36*
X127081595Y-89473387D02*
G01*
X127192038Y-89607962D01*
X127249295Y-89654952D01*
X127140887Y-89665629D01*
X127007119Y-89706207D01*
X126883838Y-89772102D01*
X126775782Y-89860782D01*
X126687102Y-89968838D01*
X126621207Y-90092119D01*
X126580629Y-90225887D01*
X126566928Y-90365000D01*
X126566928Y-90515000D01*
X126580629Y-90654113D01*
X126591515Y-90690000D01*
X126580629Y-90725887D01*
X126566928Y-90865000D01*
X126566928Y-90965716D01*
X126474256Y-90903795D01*
X126285898Y-90825774D01*
X126085939Y-90786000D01*
X125882061Y-90786000D01*
X125682102Y-90825774D01*
X125493744Y-90903795D01*
X125324226Y-91017063D01*
X125180063Y-91161226D01*
X125153819Y-91200503D01*
X125120011Y-91159307D01*
X125091007Y-91135504D01*
X124884506Y-90929003D01*
X124860703Y-90899999D01*
X124803818Y-90853315D01*
X124838793Y-90787881D01*
X124879371Y-90654113D01*
X124893072Y-90515000D01*
X124893072Y-90365000D01*
X124879371Y-90225887D01*
X124865300Y-90179501D01*
X125629802Y-89415000D01*
X127050386Y-89415000D01*
X127081595Y-89473387D01*
G37*
X127081595Y-89473387D02*
X127192038Y-89607962D01*
X127249295Y-89654952D01*
X127140887Y-89665629D01*
X127007119Y-89706207D01*
X126883838Y-89772102D01*
X126775782Y-89860782D01*
X126687102Y-89968838D01*
X126621207Y-90092119D01*
X126580629Y-90225887D01*
X126566928Y-90365000D01*
X126566928Y-90515000D01*
X126580629Y-90654113D01*
X126591515Y-90690000D01*
X126580629Y-90725887D01*
X126566928Y-90865000D01*
X126566928Y-90965716D01*
X126474256Y-90903795D01*
X126285898Y-90825774D01*
X126085939Y-90786000D01*
X125882061Y-90786000D01*
X125682102Y-90825774D01*
X125493744Y-90903795D01*
X125324226Y-91017063D01*
X125180063Y-91161226D01*
X125153819Y-91200503D01*
X125120011Y-91159307D01*
X125091007Y-91135504D01*
X124884506Y-90929003D01*
X124860703Y-90899999D01*
X124803818Y-90853315D01*
X124838793Y-90787881D01*
X124879371Y-90654113D01*
X124893072Y-90515000D01*
X124893072Y-90365000D01*
X124879371Y-90225887D01*
X124865300Y-90179501D01*
X125629802Y-89415000D01*
X127050386Y-89415000D01*
X127081595Y-89473387D01*
G36*
X122221207Y-92787881D02*
G01*
X122287102Y-92911162D01*
X122375782Y-93019218D01*
X122483838Y-93107898D01*
X122607119Y-93173793D01*
X122740887Y-93214371D01*
X122880000Y-93228072D01*
X122893466Y-93228072D01*
X123100197Y-93434803D01*
X123119443Y-93450597D01*
X123141399Y-93462333D01*
X123165224Y-93469560D01*
X123190000Y-93472000D01*
X123698000Y-93472000D01*
X123698000Y-98400000D01*
X117602000Y-98400000D01*
X117602000Y-97239775D01*
X118839830Y-97239775D01*
X119079976Y-97627018D01*
X119573877Y-97887641D01*
X120109133Y-98046901D01*
X120665174Y-98098678D01*
X121220632Y-98040981D01*
X121754161Y-97876028D01*
X122220024Y-97627018D01*
X122460170Y-97239775D01*
X120650000Y-95429605D01*
X118839830Y-97239775D01*
X117602000Y-97239775D01*
X117602000Y-95120042D01*
X117635425Y-95079313D01*
X117837440Y-94877298D01*
X117801322Y-95265174D01*
X117859019Y-95820632D01*
X118023972Y-96354161D01*
X118272982Y-96820024D01*
X118660225Y-97060170D01*
X120470395Y-95250000D01*
X120829605Y-95250000D01*
X122639775Y-97060170D01*
X123027018Y-96820024D01*
X123287641Y-96326123D01*
X123446901Y-95790867D01*
X123498678Y-95234826D01*
X123440981Y-94679368D01*
X123276028Y-94145839D01*
X123027018Y-93679976D01*
X122639775Y-93439830D01*
X120829605Y-95250000D01*
X120470395Y-95250000D01*
X120456253Y-95235858D01*
X120635858Y-95056253D01*
X120650000Y-95070395D01*
X122460170Y-93260225D01*
X122220024Y-92872982D01*
X121892210Y-92700000D01*
X122194549Y-92700000D01*
X122221207Y-92787881D01*
G37*
X122221207Y-92787881D02*
X122287102Y-92911162D01*
X122375782Y-93019218D01*
X122483838Y-93107898D01*
X122607119Y-93173793D01*
X122740887Y-93214371D01*
X122880000Y-93228072D01*
X122893466Y-93228072D01*
X123100197Y-93434803D01*
X123119443Y-93450597D01*
X123141399Y-93462333D01*
X123165224Y-93469560D01*
X123190000Y-93472000D01*
X123698000Y-93472000D01*
X123698000Y-98400000D01*
X117602000Y-98400000D01*
X117602000Y-97239775D01*
X118839830Y-97239775D01*
X119079976Y-97627018D01*
X119573877Y-97887641D01*
X120109133Y-98046901D01*
X120665174Y-98098678D01*
X121220632Y-98040981D01*
X121754161Y-97876028D01*
X122220024Y-97627018D01*
X122460170Y-97239775D01*
X120650000Y-95429605D01*
X118839830Y-97239775D01*
X117602000Y-97239775D01*
X117602000Y-95120042D01*
X117635425Y-95079313D01*
X117837440Y-94877298D01*
X117801322Y-95265174D01*
X117859019Y-95820632D01*
X118023972Y-96354161D01*
X118272982Y-96820024D01*
X118660225Y-97060170D01*
X120470395Y-95250000D01*
X120829605Y-95250000D01*
X122639775Y-97060170D01*
X123027018Y-96820024D01*
X123287641Y-96326123D01*
X123446901Y-95790867D01*
X123498678Y-95234826D01*
X123440981Y-94679368D01*
X123276028Y-94145839D01*
X123027018Y-93679976D01*
X122639775Y-93439830D01*
X120829605Y-95250000D01*
X120470395Y-95250000D01*
X120456253Y-95235858D01*
X120635858Y-95056253D01*
X120650000Y-95070395D01*
X122460170Y-93260225D01*
X122220024Y-92872982D01*
X121892210Y-92700000D01*
X122194549Y-92700000D01*
X122221207Y-92787881D01*
G36*
X119110913Y-92856446D02*
G01*
X119095504Y-92700000D01*
X119403601Y-92700000D01*
X119110913Y-92856446D01*
G37*
X119110913Y-92856446D02*
X119095504Y-92700000D01*
X119403601Y-92700000D01*
X119110913Y-92856446D01*
G36*
X123698000Y-88847394D02*
G01*
X122893466Y-89651928D01*
X122880000Y-89651928D01*
X122740887Y-89665629D01*
X122607119Y-89706207D01*
X122483838Y-89772102D01*
X122375782Y-89860782D01*
X122287102Y-89968838D01*
X122221207Y-90092119D01*
X122180629Y-90225887D01*
X122166928Y-90365000D01*
X122166928Y-90515000D01*
X122180629Y-90654113D01*
X122181180Y-90655929D01*
X122181156Y-90656004D01*
X122178538Y-90680000D01*
X120469802Y-90680000D01*
X120227748Y-90437946D01*
X120665174Y-90478678D01*
X121220632Y-90420981D01*
X121754161Y-90256028D01*
X122220024Y-90007018D01*
X122460170Y-89619775D01*
X120650000Y-87809605D01*
X120635858Y-87823748D01*
X120456253Y-87644143D01*
X120470395Y-87630000D01*
X120829605Y-87630000D01*
X122639775Y-89440170D01*
X123027018Y-89200024D01*
X123287641Y-88706123D01*
X123446901Y-88170867D01*
X123498678Y-87614826D01*
X123440981Y-87059368D01*
X123276028Y-86525839D01*
X123027018Y-86059976D01*
X122639775Y-85819830D01*
X120829605Y-87630000D01*
X120470395Y-87630000D01*
X118660225Y-85819830D01*
X118272982Y-86059976D01*
X118012359Y-86553877D01*
X117853099Y-87089133D01*
X117801322Y-87645174D01*
X117852953Y-88142233D01*
X117602000Y-87934258D01*
X117602000Y-85640225D01*
X118839830Y-85640225D01*
X120650000Y-87450395D01*
X122460170Y-85640225D01*
X122220024Y-85252982D01*
X121726123Y-84992359D01*
X121190867Y-84833099D01*
X120634826Y-84781322D01*
X120079368Y-84839019D01*
X119545839Y-85003972D01*
X119079976Y-85252982D01*
X118839830Y-85640225D01*
X117602000Y-85640225D01*
X117602000Y-84480000D01*
X123698000Y-84480000D01*
X123698000Y-88847394D01*
G37*
X123698000Y-88847394D02*
X122893466Y-89651928D01*
X122880000Y-89651928D01*
X122740887Y-89665629D01*
X122607119Y-89706207D01*
X122483838Y-89772102D01*
X122375782Y-89860782D01*
X122287102Y-89968838D01*
X122221207Y-90092119D01*
X122180629Y-90225887D01*
X122166928Y-90365000D01*
X122166928Y-90515000D01*
X122180629Y-90654113D01*
X122181180Y-90655929D01*
X122181156Y-90656004D01*
X122178538Y-90680000D01*
X120469802Y-90680000D01*
X120227748Y-90437946D01*
X120665174Y-90478678D01*
X121220632Y-90420981D01*
X121754161Y-90256028D01*
X122220024Y-90007018D01*
X122460170Y-89619775D01*
X120650000Y-87809605D01*
X120635858Y-87823748D01*
X120456253Y-87644143D01*
X120470395Y-87630000D01*
X120829605Y-87630000D01*
X122639775Y-89440170D01*
X123027018Y-89200024D01*
X123287641Y-88706123D01*
X123446901Y-88170867D01*
X123498678Y-87614826D01*
X123440981Y-87059368D01*
X123276028Y-86525839D01*
X123027018Y-86059976D01*
X122639775Y-85819830D01*
X120829605Y-87630000D01*
X120470395Y-87630000D01*
X118660225Y-85819830D01*
X118272982Y-86059976D01*
X118012359Y-86553877D01*
X117853099Y-87089133D01*
X117801322Y-87645174D01*
X117852953Y-88142233D01*
X117602000Y-87934258D01*
X117602000Y-85640225D01*
X118839830Y-85640225D01*
X120650000Y-87450395D01*
X122460170Y-85640225D01*
X122220024Y-85252982D01*
X121726123Y-84992359D01*
X121190867Y-84833099D01*
X120634826Y-84781322D01*
X120079368Y-84839019D01*
X119545839Y-85003972D01*
X119079976Y-85252982D01*
X118839830Y-85640225D01*
X117602000Y-85640225D01*
X117602000Y-84480000D01*
X123698000Y-84480000D01*
X123698000Y-88847394D01*
M02*
