G04 #@! TF.GenerationSoftware,KiCad,Pcbnew,5.1.5*
G04 #@! TF.CreationDate,2020-01-04T22:00:14+01:00*
G04 #@! TF.ProjectId,cs_ina220,63735f69-6e61-4323-9230-2e6b69636164,rev?*
G04 #@! TF.SameCoordinates,Original*
G04 #@! TF.FileFunction,Legend,Bot*
G04 #@! TF.FilePolarity,Positive*
%FSLAX46Y46*%
G04 Gerber Fmt 4.6, Leading zero omitted, Abs format (unit mm)*
G04 Created by KiCad (PCBNEW 5.1.5) date 2020-01-04 22:00:14*
%MOMM*%
%LPD*%
G04 APERTURE LIST*
%ADD10C,0.150000*%
%ADD11C,0.120000*%
G04 APERTURE END LIST*
D10*
X106307380Y-85297142D02*
X105307380Y-85297142D01*
X106307380Y-85773333D02*
X105307380Y-85773333D01*
X106307380Y-86344761D01*
X105307380Y-86344761D01*
X106021666Y-86773333D02*
X106021666Y-87249523D01*
X106307380Y-86678095D02*
X105307380Y-87011428D01*
X106307380Y-87344761D01*
X105402619Y-87630476D02*
X105355000Y-87678095D01*
X105307380Y-87773333D01*
X105307380Y-88011428D01*
X105355000Y-88106666D01*
X105402619Y-88154285D01*
X105497857Y-88201904D01*
X105593095Y-88201904D01*
X105735952Y-88154285D01*
X106307380Y-87582857D01*
X106307380Y-88201904D01*
X105402619Y-88582857D02*
X105355000Y-88630476D01*
X105307380Y-88725714D01*
X105307380Y-88963809D01*
X105355000Y-89059047D01*
X105402619Y-89106666D01*
X105497857Y-89154285D01*
X105593095Y-89154285D01*
X105735952Y-89106666D01*
X106307380Y-88535238D01*
X106307380Y-89154285D01*
X105307380Y-89773333D02*
X105307380Y-89868571D01*
X105355000Y-89963809D01*
X105402619Y-90011428D01*
X105497857Y-90059047D01*
X105688333Y-90106666D01*
X105926428Y-90106666D01*
X106116904Y-90059047D01*
X106212142Y-90011428D01*
X106259761Y-89963809D01*
X106307380Y-89868571D01*
X106307380Y-89773333D01*
X106259761Y-89678095D01*
X106212142Y-89630476D01*
X106116904Y-89582857D01*
X105926428Y-89535238D01*
X105688333Y-89535238D01*
X105497857Y-89582857D01*
X105402619Y-89630476D01*
X105355000Y-89678095D01*
X105307380Y-89773333D01*
X106212142Y-91868571D02*
X106259761Y-91820952D01*
X106307380Y-91678095D01*
X106307380Y-91582857D01*
X106259761Y-91440000D01*
X106164523Y-91344761D01*
X106069285Y-91297142D01*
X105878809Y-91249523D01*
X105735952Y-91249523D01*
X105545476Y-91297142D01*
X105450238Y-91344761D01*
X105355000Y-91440000D01*
X105307380Y-91582857D01*
X105307380Y-91678095D01*
X105355000Y-91820952D01*
X105402619Y-91868571D01*
X105307380Y-92297142D02*
X106116904Y-92297142D01*
X106212142Y-92344761D01*
X106259761Y-92392380D01*
X106307380Y-92487619D01*
X106307380Y-92678095D01*
X106259761Y-92773333D01*
X106212142Y-92820952D01*
X106116904Y-92868571D01*
X105307380Y-92868571D01*
X106307380Y-93916190D02*
X105831190Y-93582857D01*
X106307380Y-93344761D02*
X105307380Y-93344761D01*
X105307380Y-93725714D01*
X105355000Y-93820952D01*
X105402619Y-93868571D01*
X105497857Y-93916190D01*
X105640714Y-93916190D01*
X105735952Y-93868571D01*
X105783571Y-93820952D01*
X105831190Y-93725714D01*
X105831190Y-93344761D01*
X106307380Y-94916190D02*
X105831190Y-94582857D01*
X106307380Y-94344761D02*
X105307380Y-94344761D01*
X105307380Y-94725714D01*
X105355000Y-94820952D01*
X105402619Y-94868571D01*
X105497857Y-94916190D01*
X105640714Y-94916190D01*
X105735952Y-94868571D01*
X105783571Y-94820952D01*
X105831190Y-94725714D01*
X105831190Y-94344761D01*
X105783571Y-95344761D02*
X105783571Y-95678095D01*
X106307380Y-95820952D02*
X106307380Y-95344761D01*
X105307380Y-95344761D01*
X105307380Y-95820952D01*
X106307380Y-96249523D02*
X105307380Y-96249523D01*
X106307380Y-96820952D01*
X105307380Y-96820952D01*
X105307380Y-97154285D02*
X105307380Y-97725714D01*
X106307380Y-97440000D02*
X105307380Y-97440000D01*
X107909761Y-85059047D02*
X107957380Y-85201904D01*
X107957380Y-85440000D01*
X107909761Y-85535238D01*
X107862142Y-85582857D01*
X107766904Y-85630476D01*
X107671666Y-85630476D01*
X107576428Y-85582857D01*
X107528809Y-85535238D01*
X107481190Y-85440000D01*
X107433571Y-85249523D01*
X107385952Y-85154285D01*
X107338333Y-85106666D01*
X107243095Y-85059047D01*
X107147857Y-85059047D01*
X107052619Y-85106666D01*
X107005000Y-85154285D01*
X106957380Y-85249523D01*
X106957380Y-85487619D01*
X107005000Y-85630476D01*
X107433571Y-86059047D02*
X107433571Y-86392380D01*
X107957380Y-86535238D02*
X107957380Y-86059047D01*
X106957380Y-86059047D01*
X106957380Y-86535238D01*
X107957380Y-86963809D02*
X106957380Y-86963809D01*
X107957380Y-87535238D01*
X106957380Y-87535238D01*
X107909761Y-87963809D02*
X107957380Y-88106666D01*
X107957380Y-88344761D01*
X107909761Y-88440000D01*
X107862142Y-88487619D01*
X107766904Y-88535238D01*
X107671666Y-88535238D01*
X107576428Y-88487619D01*
X107528809Y-88440000D01*
X107481190Y-88344761D01*
X107433571Y-88154285D01*
X107385952Y-88059047D01*
X107338333Y-88011428D01*
X107243095Y-87963809D01*
X107147857Y-87963809D01*
X107052619Y-88011428D01*
X107005000Y-88059047D01*
X106957380Y-88154285D01*
X106957380Y-88392380D01*
X107005000Y-88535238D01*
X107433571Y-88963809D02*
X107433571Y-89297142D01*
X107957380Y-89440000D02*
X107957380Y-88963809D01*
X106957380Y-88963809D01*
X106957380Y-89440000D01*
X107433571Y-90963809D02*
X107481190Y-91106666D01*
X107528809Y-91154285D01*
X107624047Y-91201904D01*
X107766904Y-91201904D01*
X107862142Y-91154285D01*
X107909761Y-91106666D01*
X107957380Y-91011428D01*
X107957380Y-90630476D01*
X106957380Y-90630476D01*
X106957380Y-90963809D01*
X107005000Y-91059047D01*
X107052619Y-91106666D01*
X107147857Y-91154285D01*
X107243095Y-91154285D01*
X107338333Y-91106666D01*
X107385952Y-91059047D01*
X107433571Y-90963809D01*
X107433571Y-90630476D01*
X107957380Y-92201904D02*
X107481190Y-91868571D01*
X107957380Y-91630476D02*
X106957380Y-91630476D01*
X106957380Y-92011428D01*
X107005000Y-92106666D01*
X107052619Y-92154285D01*
X107147857Y-92201904D01*
X107290714Y-92201904D01*
X107385952Y-92154285D01*
X107433571Y-92106666D01*
X107481190Y-92011428D01*
X107481190Y-91630476D01*
X107433571Y-92630476D02*
X107433571Y-92963809D01*
X107957380Y-93106666D02*
X107957380Y-92630476D01*
X106957380Y-92630476D01*
X106957380Y-93106666D01*
X107671666Y-93487619D02*
X107671666Y-93963809D01*
X107957380Y-93392380D02*
X106957380Y-93725714D01*
X107957380Y-94059047D01*
X107957380Y-94392380D02*
X106957380Y-94392380D01*
X107957380Y-94963809D02*
X107385952Y-94535238D01*
X106957380Y-94963809D02*
X107528809Y-94392380D01*
X106957380Y-95582857D02*
X106957380Y-95773333D01*
X107005000Y-95868571D01*
X107100238Y-95963809D01*
X107290714Y-96011428D01*
X107624047Y-96011428D01*
X107814523Y-95963809D01*
X107909761Y-95868571D01*
X107957380Y-95773333D01*
X107957380Y-95582857D01*
X107909761Y-95487619D01*
X107814523Y-95392380D01*
X107624047Y-95344761D01*
X107290714Y-95344761D01*
X107100238Y-95392380D01*
X107005000Y-95487619D01*
X106957380Y-95582857D01*
X106957380Y-96440000D02*
X107766904Y-96440000D01*
X107862142Y-96487619D01*
X107909761Y-96535238D01*
X107957380Y-96630476D01*
X107957380Y-96820952D01*
X107909761Y-96916190D01*
X107862142Y-96963809D01*
X107766904Y-97011428D01*
X106957380Y-97011428D01*
X106957380Y-97344761D02*
X106957380Y-97916190D01*
X107957380Y-97630476D02*
X106957380Y-97630476D01*
X117822500Y-90194761D02*
X117679642Y-90242380D01*
X117441547Y-90242380D01*
X117346309Y-90194761D01*
X117298690Y-90147142D01*
X117251071Y-90051904D01*
X117251071Y-89956666D01*
X117298690Y-89861428D01*
X117346309Y-89813809D01*
X117441547Y-89766190D01*
X117632023Y-89718571D01*
X117727261Y-89670952D01*
X117774880Y-89623333D01*
X117822500Y-89528095D01*
X117822500Y-89432857D01*
X117774880Y-89337619D01*
X117727261Y-89290000D01*
X117632023Y-89242380D01*
X117393928Y-89242380D01*
X117251071Y-89290000D01*
X116822500Y-90242380D02*
X116822500Y-89242380D01*
X116584404Y-89242380D01*
X116441547Y-89290000D01*
X116346309Y-89385238D01*
X116298690Y-89480476D01*
X116251071Y-89670952D01*
X116251071Y-89813809D01*
X116298690Y-90004285D01*
X116346309Y-90099523D01*
X116441547Y-90194761D01*
X116584404Y-90242380D01*
X116822500Y-90242380D01*
X115870119Y-89956666D02*
X115393928Y-89956666D01*
X115965357Y-90242380D02*
X115632023Y-89242380D01*
X115298690Y-90242380D01*
X121727261Y-90892380D02*
X121393928Y-91892380D01*
X121060595Y-90892380D01*
X120155833Y-91797142D02*
X120203452Y-91844761D01*
X120346309Y-91892380D01*
X120441547Y-91892380D01*
X120584404Y-91844761D01*
X120679642Y-91749523D01*
X120727261Y-91654285D01*
X120774880Y-91463809D01*
X120774880Y-91320952D01*
X120727261Y-91130476D01*
X120679642Y-91035238D01*
X120584404Y-90940000D01*
X120441547Y-90892380D01*
X120346309Y-90892380D01*
X120203452Y-90940000D01*
X120155833Y-90987619D01*
X119155833Y-91797142D02*
X119203452Y-91844761D01*
X119346309Y-91892380D01*
X119441547Y-91892380D01*
X119584404Y-91844761D01*
X119679642Y-91749523D01*
X119727261Y-91654285D01*
X119774880Y-91463809D01*
X119774880Y-91320952D01*
X119727261Y-91130476D01*
X119679642Y-91035238D01*
X119584404Y-90940000D01*
X119441547Y-90892380D01*
X119346309Y-90892380D01*
X119203452Y-90940000D01*
X119155833Y-90987619D01*
X114203452Y-91844761D02*
X114060595Y-91892380D01*
X113822500Y-91892380D01*
X113727261Y-91844761D01*
X113679642Y-91797142D01*
X113632023Y-91701904D01*
X113632023Y-91606666D01*
X113679642Y-91511428D01*
X113727261Y-91463809D01*
X113822500Y-91416190D01*
X114012976Y-91368571D01*
X114108214Y-91320952D01*
X114155833Y-91273333D01*
X114203452Y-91178095D01*
X114203452Y-91082857D01*
X114155833Y-90987619D01*
X114108214Y-90940000D01*
X114012976Y-90892380D01*
X113774880Y-90892380D01*
X113632023Y-90940000D01*
X112632023Y-91797142D02*
X112679642Y-91844761D01*
X112822500Y-91892380D01*
X112917738Y-91892380D01*
X113060595Y-91844761D01*
X113155833Y-91749523D01*
X113203452Y-91654285D01*
X113251071Y-91463809D01*
X113251071Y-91320952D01*
X113203452Y-91130476D01*
X113155833Y-91035238D01*
X113060595Y-90940000D01*
X112917738Y-90892380D01*
X112822500Y-90892380D01*
X112679642Y-90940000D01*
X112632023Y-90987619D01*
X111727261Y-91892380D02*
X112203452Y-91892380D01*
X112203452Y-90892380D01*
X117251071Y-92590000D02*
X117346309Y-92542380D01*
X117489166Y-92542380D01*
X117632023Y-92590000D01*
X117727261Y-92685238D01*
X117774880Y-92780476D01*
X117822500Y-92970952D01*
X117822500Y-93113809D01*
X117774880Y-93304285D01*
X117727261Y-93399523D01*
X117632023Y-93494761D01*
X117489166Y-93542380D01*
X117393928Y-93542380D01*
X117251071Y-93494761D01*
X117203452Y-93447142D01*
X117203452Y-93113809D01*
X117393928Y-93113809D01*
X116774880Y-93542380D02*
X116774880Y-92542380D01*
X116203452Y-93542380D01*
X116203452Y-92542380D01*
X115727261Y-93542380D02*
X115727261Y-92542380D01*
X115489166Y-92542380D01*
X115346309Y-92590000D01*
X115251071Y-92685238D01*
X115203452Y-92780476D01*
X115155833Y-92970952D01*
X115155833Y-93113809D01*
X115203452Y-93304285D01*
X115251071Y-93399523D01*
X115346309Y-93494761D01*
X115489166Y-93542380D01*
X115727261Y-93542380D01*
X130254285Y-92876666D02*
X129778095Y-92876666D01*
X130349523Y-93162380D02*
X130016190Y-92162380D01*
X129682857Y-93162380D01*
X128825714Y-93162380D02*
X129397142Y-93162380D01*
X129111428Y-93162380D02*
X129111428Y-92162380D01*
X129206666Y-92305238D01*
X129301904Y-92400476D01*
X129397142Y-92448095D01*
X130254285Y-85256666D02*
X129778095Y-85256666D01*
X130349523Y-85542380D02*
X130016190Y-84542380D01*
X129682857Y-85542380D01*
X129159047Y-84542380D02*
X129063809Y-84542380D01*
X128968571Y-84590000D01*
X128920952Y-84637619D01*
X128873333Y-84732857D01*
X128825714Y-84923333D01*
X128825714Y-85161428D01*
X128873333Y-85351904D01*
X128920952Y-85447142D01*
X128968571Y-85494761D01*
X129063809Y-85542380D01*
X129159047Y-85542380D01*
X129254285Y-85494761D01*
X129301904Y-85447142D01*
X129349523Y-85351904D01*
X129397142Y-85161428D01*
X129397142Y-84923333D01*
X129349523Y-84732857D01*
X129301904Y-84637619D01*
X129254285Y-84590000D01*
X129159047Y-84542380D01*
D11*
X135330000Y-93473748D02*
X135330000Y-93996252D01*
X133910000Y-93473748D02*
X133910000Y-93996252D01*
X133910000Y-89796252D02*
X133910000Y-89273748D01*
X135330000Y-89796252D02*
X135330000Y-89273748D01*
D10*
X136850380Y-93559333D02*
X136374190Y-93226000D01*
X136850380Y-92987904D02*
X135850380Y-92987904D01*
X135850380Y-93368857D01*
X135898000Y-93464095D01*
X135945619Y-93511714D01*
X136040857Y-93559333D01*
X136183714Y-93559333D01*
X136278952Y-93511714D01*
X136326571Y-93464095D01*
X136374190Y-93368857D01*
X136374190Y-92987904D01*
X135850380Y-93892666D02*
X135850380Y-94511714D01*
X136231333Y-94178380D01*
X136231333Y-94321238D01*
X136278952Y-94416476D01*
X136326571Y-94464095D01*
X136421809Y-94511714D01*
X136659904Y-94511714D01*
X136755142Y-94464095D01*
X136802761Y-94416476D01*
X136850380Y-94321238D01*
X136850380Y-94035523D01*
X136802761Y-93940285D01*
X136755142Y-93892666D01*
X136850380Y-89368333D02*
X136374190Y-89035000D01*
X136850380Y-88796904D02*
X135850380Y-88796904D01*
X135850380Y-89177857D01*
X135898000Y-89273095D01*
X135945619Y-89320714D01*
X136040857Y-89368333D01*
X136183714Y-89368333D01*
X136278952Y-89320714D01*
X136326571Y-89273095D01*
X136374190Y-89177857D01*
X136374190Y-88796904D01*
X135945619Y-89749285D02*
X135898000Y-89796904D01*
X135850380Y-89892142D01*
X135850380Y-90130238D01*
X135898000Y-90225476D01*
X135945619Y-90273095D01*
X136040857Y-90320714D01*
X136136095Y-90320714D01*
X136278952Y-90273095D01*
X136850380Y-89701666D01*
X136850380Y-90320714D01*
X127333333Y-86582380D02*
X127333333Y-87296666D01*
X127380952Y-87439523D01*
X127476190Y-87534761D01*
X127619047Y-87582380D01*
X127714285Y-87582380D01*
X126904761Y-86677619D02*
X126857142Y-86630000D01*
X126761904Y-86582380D01*
X126523809Y-86582380D01*
X126428571Y-86630000D01*
X126380952Y-86677619D01*
X126333333Y-86772857D01*
X126333333Y-86868095D01*
X126380952Y-87010952D01*
X126952380Y-87582380D01*
X126333333Y-87582380D01*
X127333333Y-94202380D02*
X127333333Y-94916666D01*
X127380952Y-95059523D01*
X127476190Y-95154761D01*
X127619047Y-95202380D01*
X127714285Y-95202380D01*
X126333333Y-95202380D02*
X126904761Y-95202380D01*
X126619047Y-95202380D02*
X126619047Y-94202380D01*
X126714285Y-94345238D01*
X126809523Y-94440476D01*
X126904761Y-94488095D01*
M02*
