G04 #@! TF.GenerationSoftware,KiCad,Pcbnew,5.1.5*
G04 #@! TF.CreationDate,2020-01-04T22:00:14+01:00*
G04 #@! TF.ProjectId,cs_ina220,63735f69-6e61-4323-9230-2e6b69636164,rev?*
G04 #@! TF.SameCoordinates,Original*
G04 #@! TF.FileFunction,Paste,Top*
G04 #@! TF.FilePolarity,Positive*
%FSLAX46Y46*%
G04 Gerber Fmt 4.6, Leading zero omitted, Abs format (unit mm)*
G04 Created by KiCad (PCBNEW 5.1.5) date 2020-01-04 22:00:14*
%MOMM*%
%LPD*%
G04 APERTURE LIST*
%ADD10C,0.100000*%
G04 APERTURE END LIST*
D10*
G36*
X124187351Y-92290361D02*
G01*
X124194632Y-92291441D01*
X124201771Y-92293229D01*
X124208701Y-92295709D01*
X124215355Y-92298856D01*
X124221668Y-92302640D01*
X124227579Y-92307024D01*
X124233033Y-92311967D01*
X124237976Y-92317421D01*
X124242360Y-92323332D01*
X124246144Y-92329645D01*
X124249291Y-92336299D01*
X124251771Y-92343229D01*
X124253559Y-92350368D01*
X124254639Y-92357649D01*
X124255000Y-92365000D01*
X124255000Y-92515000D01*
X124254639Y-92522351D01*
X124253559Y-92529632D01*
X124251771Y-92536771D01*
X124249291Y-92543701D01*
X124246144Y-92550355D01*
X124242360Y-92556668D01*
X124237976Y-92562579D01*
X124233033Y-92568033D01*
X124227579Y-92572976D01*
X124221668Y-92577360D01*
X124215355Y-92581144D01*
X124208701Y-92584291D01*
X124201771Y-92586771D01*
X124194632Y-92588559D01*
X124187351Y-92589639D01*
X124180000Y-92590000D01*
X122880000Y-92590000D01*
X122872649Y-92589639D01*
X122865368Y-92588559D01*
X122858229Y-92586771D01*
X122851299Y-92584291D01*
X122844645Y-92581144D01*
X122838332Y-92577360D01*
X122832421Y-92572976D01*
X122826967Y-92568033D01*
X122822024Y-92562579D01*
X122817640Y-92556668D01*
X122813856Y-92550355D01*
X122810709Y-92543701D01*
X122808229Y-92536771D01*
X122806441Y-92529632D01*
X122805361Y-92522351D01*
X122805000Y-92515000D01*
X122805000Y-92365000D01*
X122805361Y-92357649D01*
X122806441Y-92350368D01*
X122808229Y-92343229D01*
X122810709Y-92336299D01*
X122813856Y-92329645D01*
X122817640Y-92323332D01*
X122822024Y-92317421D01*
X122826967Y-92311967D01*
X122832421Y-92307024D01*
X122838332Y-92302640D01*
X122844645Y-92298856D01*
X122851299Y-92295709D01*
X122858229Y-92293229D01*
X122865368Y-92291441D01*
X122872649Y-92290361D01*
X122880000Y-92290000D01*
X124180000Y-92290000D01*
X124187351Y-92290361D01*
G37*
G36*
X124187351Y-91790361D02*
G01*
X124194632Y-91791441D01*
X124201771Y-91793229D01*
X124208701Y-91795709D01*
X124215355Y-91798856D01*
X124221668Y-91802640D01*
X124227579Y-91807024D01*
X124233033Y-91811967D01*
X124237976Y-91817421D01*
X124242360Y-91823332D01*
X124246144Y-91829645D01*
X124249291Y-91836299D01*
X124251771Y-91843229D01*
X124253559Y-91850368D01*
X124254639Y-91857649D01*
X124255000Y-91865000D01*
X124255000Y-92015000D01*
X124254639Y-92022351D01*
X124253559Y-92029632D01*
X124251771Y-92036771D01*
X124249291Y-92043701D01*
X124246144Y-92050355D01*
X124242360Y-92056668D01*
X124237976Y-92062579D01*
X124233033Y-92068033D01*
X124227579Y-92072976D01*
X124221668Y-92077360D01*
X124215355Y-92081144D01*
X124208701Y-92084291D01*
X124201771Y-92086771D01*
X124194632Y-92088559D01*
X124187351Y-92089639D01*
X124180000Y-92090000D01*
X122880000Y-92090000D01*
X122872649Y-92089639D01*
X122865368Y-92088559D01*
X122858229Y-92086771D01*
X122851299Y-92084291D01*
X122844645Y-92081144D01*
X122838332Y-92077360D01*
X122832421Y-92072976D01*
X122826967Y-92068033D01*
X122822024Y-92062579D01*
X122817640Y-92056668D01*
X122813856Y-92050355D01*
X122810709Y-92043701D01*
X122808229Y-92036771D01*
X122806441Y-92029632D01*
X122805361Y-92022351D01*
X122805000Y-92015000D01*
X122805000Y-91865000D01*
X122805361Y-91857649D01*
X122806441Y-91850368D01*
X122808229Y-91843229D01*
X122810709Y-91836299D01*
X122813856Y-91829645D01*
X122817640Y-91823332D01*
X122822024Y-91817421D01*
X122826967Y-91811967D01*
X122832421Y-91807024D01*
X122838332Y-91802640D01*
X122844645Y-91798856D01*
X122851299Y-91795709D01*
X122858229Y-91793229D01*
X122865368Y-91791441D01*
X122872649Y-91790361D01*
X122880000Y-91790000D01*
X124180000Y-91790000D01*
X124187351Y-91790361D01*
G37*
G36*
X124187351Y-91290361D02*
G01*
X124194632Y-91291441D01*
X124201771Y-91293229D01*
X124208701Y-91295709D01*
X124215355Y-91298856D01*
X124221668Y-91302640D01*
X124227579Y-91307024D01*
X124233033Y-91311967D01*
X124237976Y-91317421D01*
X124242360Y-91323332D01*
X124246144Y-91329645D01*
X124249291Y-91336299D01*
X124251771Y-91343229D01*
X124253559Y-91350368D01*
X124254639Y-91357649D01*
X124255000Y-91365000D01*
X124255000Y-91515000D01*
X124254639Y-91522351D01*
X124253559Y-91529632D01*
X124251771Y-91536771D01*
X124249291Y-91543701D01*
X124246144Y-91550355D01*
X124242360Y-91556668D01*
X124237976Y-91562579D01*
X124233033Y-91568033D01*
X124227579Y-91572976D01*
X124221668Y-91577360D01*
X124215355Y-91581144D01*
X124208701Y-91584291D01*
X124201771Y-91586771D01*
X124194632Y-91588559D01*
X124187351Y-91589639D01*
X124180000Y-91590000D01*
X122880000Y-91590000D01*
X122872649Y-91589639D01*
X122865368Y-91588559D01*
X122858229Y-91586771D01*
X122851299Y-91584291D01*
X122844645Y-91581144D01*
X122838332Y-91577360D01*
X122832421Y-91572976D01*
X122826967Y-91568033D01*
X122822024Y-91562579D01*
X122817640Y-91556668D01*
X122813856Y-91550355D01*
X122810709Y-91543701D01*
X122808229Y-91536771D01*
X122806441Y-91529632D01*
X122805361Y-91522351D01*
X122805000Y-91515000D01*
X122805000Y-91365000D01*
X122805361Y-91357649D01*
X122806441Y-91350368D01*
X122808229Y-91343229D01*
X122810709Y-91336299D01*
X122813856Y-91329645D01*
X122817640Y-91323332D01*
X122822024Y-91317421D01*
X122826967Y-91311967D01*
X122832421Y-91307024D01*
X122838332Y-91302640D01*
X122844645Y-91298856D01*
X122851299Y-91295709D01*
X122858229Y-91293229D01*
X122865368Y-91291441D01*
X122872649Y-91290361D01*
X122880000Y-91290000D01*
X124180000Y-91290000D01*
X124187351Y-91290361D01*
G37*
G36*
X124187351Y-90790361D02*
G01*
X124194632Y-90791441D01*
X124201771Y-90793229D01*
X124208701Y-90795709D01*
X124215355Y-90798856D01*
X124221668Y-90802640D01*
X124227579Y-90807024D01*
X124233033Y-90811967D01*
X124237976Y-90817421D01*
X124242360Y-90823332D01*
X124246144Y-90829645D01*
X124249291Y-90836299D01*
X124251771Y-90843229D01*
X124253559Y-90850368D01*
X124254639Y-90857649D01*
X124255000Y-90865000D01*
X124255000Y-91015000D01*
X124254639Y-91022351D01*
X124253559Y-91029632D01*
X124251771Y-91036771D01*
X124249291Y-91043701D01*
X124246144Y-91050355D01*
X124242360Y-91056668D01*
X124237976Y-91062579D01*
X124233033Y-91068033D01*
X124227579Y-91072976D01*
X124221668Y-91077360D01*
X124215355Y-91081144D01*
X124208701Y-91084291D01*
X124201771Y-91086771D01*
X124194632Y-91088559D01*
X124187351Y-91089639D01*
X124180000Y-91090000D01*
X122880000Y-91090000D01*
X122872649Y-91089639D01*
X122865368Y-91088559D01*
X122858229Y-91086771D01*
X122851299Y-91084291D01*
X122844645Y-91081144D01*
X122838332Y-91077360D01*
X122832421Y-91072976D01*
X122826967Y-91068033D01*
X122822024Y-91062579D01*
X122817640Y-91056668D01*
X122813856Y-91050355D01*
X122810709Y-91043701D01*
X122808229Y-91036771D01*
X122806441Y-91029632D01*
X122805361Y-91022351D01*
X122805000Y-91015000D01*
X122805000Y-90865000D01*
X122805361Y-90857649D01*
X122806441Y-90850368D01*
X122808229Y-90843229D01*
X122810709Y-90836299D01*
X122813856Y-90829645D01*
X122817640Y-90823332D01*
X122822024Y-90817421D01*
X122826967Y-90811967D01*
X122832421Y-90807024D01*
X122838332Y-90802640D01*
X122844645Y-90798856D01*
X122851299Y-90795709D01*
X122858229Y-90793229D01*
X122865368Y-90791441D01*
X122872649Y-90790361D01*
X122880000Y-90790000D01*
X124180000Y-90790000D01*
X124187351Y-90790361D01*
G37*
G36*
X124187351Y-90290361D02*
G01*
X124194632Y-90291441D01*
X124201771Y-90293229D01*
X124208701Y-90295709D01*
X124215355Y-90298856D01*
X124221668Y-90302640D01*
X124227579Y-90307024D01*
X124233033Y-90311967D01*
X124237976Y-90317421D01*
X124242360Y-90323332D01*
X124246144Y-90329645D01*
X124249291Y-90336299D01*
X124251771Y-90343229D01*
X124253559Y-90350368D01*
X124254639Y-90357649D01*
X124255000Y-90365000D01*
X124255000Y-90515000D01*
X124254639Y-90522351D01*
X124253559Y-90529632D01*
X124251771Y-90536771D01*
X124249291Y-90543701D01*
X124246144Y-90550355D01*
X124242360Y-90556668D01*
X124237976Y-90562579D01*
X124233033Y-90568033D01*
X124227579Y-90572976D01*
X124221668Y-90577360D01*
X124215355Y-90581144D01*
X124208701Y-90584291D01*
X124201771Y-90586771D01*
X124194632Y-90588559D01*
X124187351Y-90589639D01*
X124180000Y-90590000D01*
X122880000Y-90590000D01*
X122872649Y-90589639D01*
X122865368Y-90588559D01*
X122858229Y-90586771D01*
X122851299Y-90584291D01*
X122844645Y-90581144D01*
X122838332Y-90577360D01*
X122832421Y-90572976D01*
X122826967Y-90568033D01*
X122822024Y-90562579D01*
X122817640Y-90556668D01*
X122813856Y-90550355D01*
X122810709Y-90543701D01*
X122808229Y-90536771D01*
X122806441Y-90529632D01*
X122805361Y-90522351D01*
X122805000Y-90515000D01*
X122805000Y-90365000D01*
X122805361Y-90357649D01*
X122806441Y-90350368D01*
X122808229Y-90343229D01*
X122810709Y-90336299D01*
X122813856Y-90329645D01*
X122817640Y-90323332D01*
X122822024Y-90317421D01*
X122826967Y-90311967D01*
X122832421Y-90307024D01*
X122838332Y-90302640D01*
X122844645Y-90298856D01*
X122851299Y-90295709D01*
X122858229Y-90293229D01*
X122865368Y-90291441D01*
X122872649Y-90290361D01*
X122880000Y-90290000D01*
X124180000Y-90290000D01*
X124187351Y-90290361D01*
G37*
G36*
X128587351Y-90290361D02*
G01*
X128594632Y-90291441D01*
X128601771Y-90293229D01*
X128608701Y-90295709D01*
X128615355Y-90298856D01*
X128621668Y-90302640D01*
X128627579Y-90307024D01*
X128633033Y-90311967D01*
X128637976Y-90317421D01*
X128642360Y-90323332D01*
X128646144Y-90329645D01*
X128649291Y-90336299D01*
X128651771Y-90343229D01*
X128653559Y-90350368D01*
X128654639Y-90357649D01*
X128655000Y-90365000D01*
X128655000Y-90515000D01*
X128654639Y-90522351D01*
X128653559Y-90529632D01*
X128651771Y-90536771D01*
X128649291Y-90543701D01*
X128646144Y-90550355D01*
X128642360Y-90556668D01*
X128637976Y-90562579D01*
X128633033Y-90568033D01*
X128627579Y-90572976D01*
X128621668Y-90577360D01*
X128615355Y-90581144D01*
X128608701Y-90584291D01*
X128601771Y-90586771D01*
X128594632Y-90588559D01*
X128587351Y-90589639D01*
X128580000Y-90590000D01*
X127280000Y-90590000D01*
X127272649Y-90589639D01*
X127265368Y-90588559D01*
X127258229Y-90586771D01*
X127251299Y-90584291D01*
X127244645Y-90581144D01*
X127238332Y-90577360D01*
X127232421Y-90572976D01*
X127226967Y-90568033D01*
X127222024Y-90562579D01*
X127217640Y-90556668D01*
X127213856Y-90550355D01*
X127210709Y-90543701D01*
X127208229Y-90536771D01*
X127206441Y-90529632D01*
X127205361Y-90522351D01*
X127205000Y-90515000D01*
X127205000Y-90365000D01*
X127205361Y-90357649D01*
X127206441Y-90350368D01*
X127208229Y-90343229D01*
X127210709Y-90336299D01*
X127213856Y-90329645D01*
X127217640Y-90323332D01*
X127222024Y-90317421D01*
X127226967Y-90311967D01*
X127232421Y-90307024D01*
X127238332Y-90302640D01*
X127244645Y-90298856D01*
X127251299Y-90295709D01*
X127258229Y-90293229D01*
X127265368Y-90291441D01*
X127272649Y-90290361D01*
X127280000Y-90290000D01*
X128580000Y-90290000D01*
X128587351Y-90290361D01*
G37*
G36*
X128587351Y-90790361D02*
G01*
X128594632Y-90791441D01*
X128601771Y-90793229D01*
X128608701Y-90795709D01*
X128615355Y-90798856D01*
X128621668Y-90802640D01*
X128627579Y-90807024D01*
X128633033Y-90811967D01*
X128637976Y-90817421D01*
X128642360Y-90823332D01*
X128646144Y-90829645D01*
X128649291Y-90836299D01*
X128651771Y-90843229D01*
X128653559Y-90850368D01*
X128654639Y-90857649D01*
X128655000Y-90865000D01*
X128655000Y-91015000D01*
X128654639Y-91022351D01*
X128653559Y-91029632D01*
X128651771Y-91036771D01*
X128649291Y-91043701D01*
X128646144Y-91050355D01*
X128642360Y-91056668D01*
X128637976Y-91062579D01*
X128633033Y-91068033D01*
X128627579Y-91072976D01*
X128621668Y-91077360D01*
X128615355Y-91081144D01*
X128608701Y-91084291D01*
X128601771Y-91086771D01*
X128594632Y-91088559D01*
X128587351Y-91089639D01*
X128580000Y-91090000D01*
X127280000Y-91090000D01*
X127272649Y-91089639D01*
X127265368Y-91088559D01*
X127258229Y-91086771D01*
X127251299Y-91084291D01*
X127244645Y-91081144D01*
X127238332Y-91077360D01*
X127232421Y-91072976D01*
X127226967Y-91068033D01*
X127222024Y-91062579D01*
X127217640Y-91056668D01*
X127213856Y-91050355D01*
X127210709Y-91043701D01*
X127208229Y-91036771D01*
X127206441Y-91029632D01*
X127205361Y-91022351D01*
X127205000Y-91015000D01*
X127205000Y-90865000D01*
X127205361Y-90857649D01*
X127206441Y-90850368D01*
X127208229Y-90843229D01*
X127210709Y-90836299D01*
X127213856Y-90829645D01*
X127217640Y-90823332D01*
X127222024Y-90817421D01*
X127226967Y-90811967D01*
X127232421Y-90807024D01*
X127238332Y-90802640D01*
X127244645Y-90798856D01*
X127251299Y-90795709D01*
X127258229Y-90793229D01*
X127265368Y-90791441D01*
X127272649Y-90790361D01*
X127280000Y-90790000D01*
X128580000Y-90790000D01*
X128587351Y-90790361D01*
G37*
G36*
X128587351Y-91290361D02*
G01*
X128594632Y-91291441D01*
X128601771Y-91293229D01*
X128608701Y-91295709D01*
X128615355Y-91298856D01*
X128621668Y-91302640D01*
X128627579Y-91307024D01*
X128633033Y-91311967D01*
X128637976Y-91317421D01*
X128642360Y-91323332D01*
X128646144Y-91329645D01*
X128649291Y-91336299D01*
X128651771Y-91343229D01*
X128653559Y-91350368D01*
X128654639Y-91357649D01*
X128655000Y-91365000D01*
X128655000Y-91515000D01*
X128654639Y-91522351D01*
X128653559Y-91529632D01*
X128651771Y-91536771D01*
X128649291Y-91543701D01*
X128646144Y-91550355D01*
X128642360Y-91556668D01*
X128637976Y-91562579D01*
X128633033Y-91568033D01*
X128627579Y-91572976D01*
X128621668Y-91577360D01*
X128615355Y-91581144D01*
X128608701Y-91584291D01*
X128601771Y-91586771D01*
X128594632Y-91588559D01*
X128587351Y-91589639D01*
X128580000Y-91590000D01*
X127280000Y-91590000D01*
X127272649Y-91589639D01*
X127265368Y-91588559D01*
X127258229Y-91586771D01*
X127251299Y-91584291D01*
X127244645Y-91581144D01*
X127238332Y-91577360D01*
X127232421Y-91572976D01*
X127226967Y-91568033D01*
X127222024Y-91562579D01*
X127217640Y-91556668D01*
X127213856Y-91550355D01*
X127210709Y-91543701D01*
X127208229Y-91536771D01*
X127206441Y-91529632D01*
X127205361Y-91522351D01*
X127205000Y-91515000D01*
X127205000Y-91365000D01*
X127205361Y-91357649D01*
X127206441Y-91350368D01*
X127208229Y-91343229D01*
X127210709Y-91336299D01*
X127213856Y-91329645D01*
X127217640Y-91323332D01*
X127222024Y-91317421D01*
X127226967Y-91311967D01*
X127232421Y-91307024D01*
X127238332Y-91302640D01*
X127244645Y-91298856D01*
X127251299Y-91295709D01*
X127258229Y-91293229D01*
X127265368Y-91291441D01*
X127272649Y-91290361D01*
X127280000Y-91290000D01*
X128580000Y-91290000D01*
X128587351Y-91290361D01*
G37*
G36*
X128587351Y-91790361D02*
G01*
X128594632Y-91791441D01*
X128601771Y-91793229D01*
X128608701Y-91795709D01*
X128615355Y-91798856D01*
X128621668Y-91802640D01*
X128627579Y-91807024D01*
X128633033Y-91811967D01*
X128637976Y-91817421D01*
X128642360Y-91823332D01*
X128646144Y-91829645D01*
X128649291Y-91836299D01*
X128651771Y-91843229D01*
X128653559Y-91850368D01*
X128654639Y-91857649D01*
X128655000Y-91865000D01*
X128655000Y-92015000D01*
X128654639Y-92022351D01*
X128653559Y-92029632D01*
X128651771Y-92036771D01*
X128649291Y-92043701D01*
X128646144Y-92050355D01*
X128642360Y-92056668D01*
X128637976Y-92062579D01*
X128633033Y-92068033D01*
X128627579Y-92072976D01*
X128621668Y-92077360D01*
X128615355Y-92081144D01*
X128608701Y-92084291D01*
X128601771Y-92086771D01*
X128594632Y-92088559D01*
X128587351Y-92089639D01*
X128580000Y-92090000D01*
X127280000Y-92090000D01*
X127272649Y-92089639D01*
X127265368Y-92088559D01*
X127258229Y-92086771D01*
X127251299Y-92084291D01*
X127244645Y-92081144D01*
X127238332Y-92077360D01*
X127232421Y-92072976D01*
X127226967Y-92068033D01*
X127222024Y-92062579D01*
X127217640Y-92056668D01*
X127213856Y-92050355D01*
X127210709Y-92043701D01*
X127208229Y-92036771D01*
X127206441Y-92029632D01*
X127205361Y-92022351D01*
X127205000Y-92015000D01*
X127205000Y-91865000D01*
X127205361Y-91857649D01*
X127206441Y-91850368D01*
X127208229Y-91843229D01*
X127210709Y-91836299D01*
X127213856Y-91829645D01*
X127217640Y-91823332D01*
X127222024Y-91817421D01*
X127226967Y-91811967D01*
X127232421Y-91807024D01*
X127238332Y-91802640D01*
X127244645Y-91798856D01*
X127251299Y-91795709D01*
X127258229Y-91793229D01*
X127265368Y-91791441D01*
X127272649Y-91790361D01*
X127280000Y-91790000D01*
X128580000Y-91790000D01*
X128587351Y-91790361D01*
G37*
G36*
X128587351Y-92290361D02*
G01*
X128594632Y-92291441D01*
X128601771Y-92293229D01*
X128608701Y-92295709D01*
X128615355Y-92298856D01*
X128621668Y-92302640D01*
X128627579Y-92307024D01*
X128633033Y-92311967D01*
X128637976Y-92317421D01*
X128642360Y-92323332D01*
X128646144Y-92329645D01*
X128649291Y-92336299D01*
X128651771Y-92343229D01*
X128653559Y-92350368D01*
X128654639Y-92357649D01*
X128655000Y-92365000D01*
X128655000Y-92515000D01*
X128654639Y-92522351D01*
X128653559Y-92529632D01*
X128651771Y-92536771D01*
X128649291Y-92543701D01*
X128646144Y-92550355D01*
X128642360Y-92556668D01*
X128637976Y-92562579D01*
X128633033Y-92568033D01*
X128627579Y-92572976D01*
X128621668Y-92577360D01*
X128615355Y-92581144D01*
X128608701Y-92584291D01*
X128601771Y-92586771D01*
X128594632Y-92588559D01*
X128587351Y-92589639D01*
X128580000Y-92590000D01*
X127280000Y-92590000D01*
X127272649Y-92589639D01*
X127265368Y-92588559D01*
X127258229Y-92586771D01*
X127251299Y-92584291D01*
X127244645Y-92581144D01*
X127238332Y-92577360D01*
X127232421Y-92572976D01*
X127226967Y-92568033D01*
X127222024Y-92562579D01*
X127217640Y-92556668D01*
X127213856Y-92550355D01*
X127210709Y-92543701D01*
X127208229Y-92536771D01*
X127206441Y-92529632D01*
X127205361Y-92522351D01*
X127205000Y-92515000D01*
X127205000Y-92365000D01*
X127205361Y-92357649D01*
X127206441Y-92350368D01*
X127208229Y-92343229D01*
X127210709Y-92336299D01*
X127213856Y-92329645D01*
X127217640Y-92323332D01*
X127222024Y-92317421D01*
X127226967Y-92311967D01*
X127232421Y-92307024D01*
X127238332Y-92302640D01*
X127244645Y-92298856D01*
X127251299Y-92295709D01*
X127258229Y-92293229D01*
X127265368Y-92291441D01*
X127272649Y-92290361D01*
X127280000Y-92290000D01*
X128580000Y-92290000D01*
X128587351Y-92290361D01*
G37*
G36*
X118124504Y-92216204D02*
G01*
X118148773Y-92219804D01*
X118172571Y-92225765D01*
X118195671Y-92234030D01*
X118217849Y-92244520D01*
X118238893Y-92257133D01*
X118258598Y-92271747D01*
X118276777Y-92288223D01*
X118293253Y-92306402D01*
X118307867Y-92326107D01*
X118320480Y-92347151D01*
X118330970Y-92369329D01*
X118339235Y-92392429D01*
X118345196Y-92416227D01*
X118348796Y-92440496D01*
X118350000Y-92465000D01*
X118350000Y-93390000D01*
X118348796Y-93414504D01*
X118345196Y-93438773D01*
X118339235Y-93462571D01*
X118330970Y-93485671D01*
X118320480Y-93507849D01*
X118307867Y-93528893D01*
X118293253Y-93548598D01*
X118276777Y-93566777D01*
X118258598Y-93583253D01*
X118238893Y-93597867D01*
X118217849Y-93610480D01*
X118195671Y-93620970D01*
X118172571Y-93629235D01*
X118148773Y-93635196D01*
X118124504Y-93638796D01*
X118100000Y-93640000D01*
X116850000Y-93640000D01*
X116825496Y-93638796D01*
X116801227Y-93635196D01*
X116777429Y-93629235D01*
X116754329Y-93620970D01*
X116732151Y-93610480D01*
X116711107Y-93597867D01*
X116691402Y-93583253D01*
X116673223Y-93566777D01*
X116656747Y-93548598D01*
X116642133Y-93528893D01*
X116629520Y-93507849D01*
X116619030Y-93485671D01*
X116610765Y-93462571D01*
X116604804Y-93438773D01*
X116601204Y-93414504D01*
X116600000Y-93390000D01*
X116600000Y-92465000D01*
X116601204Y-92440496D01*
X116604804Y-92416227D01*
X116610765Y-92392429D01*
X116619030Y-92369329D01*
X116629520Y-92347151D01*
X116642133Y-92326107D01*
X116656747Y-92306402D01*
X116673223Y-92288223D01*
X116691402Y-92271747D01*
X116711107Y-92257133D01*
X116732151Y-92244520D01*
X116754329Y-92234030D01*
X116777429Y-92225765D01*
X116801227Y-92219804D01*
X116825496Y-92216204D01*
X116850000Y-92215000D01*
X118100000Y-92215000D01*
X118124504Y-92216204D01*
G37*
G36*
X118124504Y-89241204D02*
G01*
X118148773Y-89244804D01*
X118172571Y-89250765D01*
X118195671Y-89259030D01*
X118217849Y-89269520D01*
X118238893Y-89282133D01*
X118258598Y-89296747D01*
X118276777Y-89313223D01*
X118293253Y-89331402D01*
X118307867Y-89351107D01*
X118320480Y-89372151D01*
X118330970Y-89394329D01*
X118339235Y-89417429D01*
X118345196Y-89441227D01*
X118348796Y-89465496D01*
X118350000Y-89490000D01*
X118350000Y-90415000D01*
X118348796Y-90439504D01*
X118345196Y-90463773D01*
X118339235Y-90487571D01*
X118330970Y-90510671D01*
X118320480Y-90532849D01*
X118307867Y-90553893D01*
X118293253Y-90573598D01*
X118276777Y-90591777D01*
X118258598Y-90608253D01*
X118238893Y-90622867D01*
X118217849Y-90635480D01*
X118195671Y-90645970D01*
X118172571Y-90654235D01*
X118148773Y-90660196D01*
X118124504Y-90663796D01*
X118100000Y-90665000D01*
X116850000Y-90665000D01*
X116825496Y-90663796D01*
X116801227Y-90660196D01*
X116777429Y-90654235D01*
X116754329Y-90645970D01*
X116732151Y-90635480D01*
X116711107Y-90622867D01*
X116691402Y-90608253D01*
X116673223Y-90591777D01*
X116656747Y-90573598D01*
X116642133Y-90553893D01*
X116629520Y-90532849D01*
X116619030Y-90510671D01*
X116610765Y-90487571D01*
X116604804Y-90463773D01*
X116601204Y-90439504D01*
X116600000Y-90415000D01*
X116600000Y-89490000D01*
X116601204Y-89465496D01*
X116604804Y-89441227D01*
X116610765Y-89417429D01*
X116619030Y-89394329D01*
X116629520Y-89372151D01*
X116642133Y-89351107D01*
X116656747Y-89331402D01*
X116673223Y-89313223D01*
X116691402Y-89296747D01*
X116711107Y-89282133D01*
X116732151Y-89269520D01*
X116754329Y-89259030D01*
X116777429Y-89250765D01*
X116801227Y-89244804D01*
X116825496Y-89241204D01*
X116850000Y-89240000D01*
X118100000Y-89240000D01*
X118124504Y-89241204D01*
G37*
G36*
X128744505Y-88081204D02*
G01*
X128768773Y-88084804D01*
X128792572Y-88090765D01*
X128815671Y-88099030D01*
X128837850Y-88109520D01*
X128858893Y-88122132D01*
X128878599Y-88136747D01*
X128896777Y-88153223D01*
X128913253Y-88171401D01*
X128927868Y-88191107D01*
X128940480Y-88212150D01*
X128950970Y-88234329D01*
X128959235Y-88257428D01*
X128965196Y-88281227D01*
X128968796Y-88305495D01*
X128970000Y-88329999D01*
X128970000Y-88980001D01*
X128968796Y-89004505D01*
X128965196Y-89028773D01*
X128959235Y-89052572D01*
X128950970Y-89075671D01*
X128940480Y-89097850D01*
X128927868Y-89118893D01*
X128913253Y-89138599D01*
X128896777Y-89156777D01*
X128878599Y-89173253D01*
X128858893Y-89187868D01*
X128837850Y-89200480D01*
X128815671Y-89210970D01*
X128792572Y-89219235D01*
X128768773Y-89225196D01*
X128744505Y-89228796D01*
X128720001Y-89230000D01*
X127819999Y-89230000D01*
X127795495Y-89228796D01*
X127771227Y-89225196D01*
X127747428Y-89219235D01*
X127724329Y-89210970D01*
X127702150Y-89200480D01*
X127681107Y-89187868D01*
X127661401Y-89173253D01*
X127643223Y-89156777D01*
X127626747Y-89138599D01*
X127612132Y-89118893D01*
X127599520Y-89097850D01*
X127589030Y-89075671D01*
X127580765Y-89052572D01*
X127574804Y-89028773D01*
X127571204Y-89004505D01*
X127570000Y-88980001D01*
X127570000Y-88329999D01*
X127571204Y-88305495D01*
X127574804Y-88281227D01*
X127580765Y-88257428D01*
X127589030Y-88234329D01*
X127599520Y-88212150D01*
X127612132Y-88191107D01*
X127626747Y-88171401D01*
X127643223Y-88153223D01*
X127661401Y-88136747D01*
X127681107Y-88122132D01*
X127702150Y-88109520D01*
X127724329Y-88099030D01*
X127747428Y-88090765D01*
X127771227Y-88084804D01*
X127795495Y-88081204D01*
X127819999Y-88080000D01*
X128720001Y-88080000D01*
X128744505Y-88081204D01*
G37*
G36*
X128744505Y-86031204D02*
G01*
X128768773Y-86034804D01*
X128792572Y-86040765D01*
X128815671Y-86049030D01*
X128837850Y-86059520D01*
X128858893Y-86072132D01*
X128878599Y-86086747D01*
X128896777Y-86103223D01*
X128913253Y-86121401D01*
X128927868Y-86141107D01*
X128940480Y-86162150D01*
X128950970Y-86184329D01*
X128959235Y-86207428D01*
X128965196Y-86231227D01*
X128968796Y-86255495D01*
X128970000Y-86279999D01*
X128970000Y-86930001D01*
X128968796Y-86954505D01*
X128965196Y-86978773D01*
X128959235Y-87002572D01*
X128950970Y-87025671D01*
X128940480Y-87047850D01*
X128927868Y-87068893D01*
X128913253Y-87088599D01*
X128896777Y-87106777D01*
X128878599Y-87123253D01*
X128858893Y-87137868D01*
X128837850Y-87150480D01*
X128815671Y-87160970D01*
X128792572Y-87169235D01*
X128768773Y-87175196D01*
X128744505Y-87178796D01*
X128720001Y-87180000D01*
X127819999Y-87180000D01*
X127795495Y-87178796D01*
X127771227Y-87175196D01*
X127747428Y-87169235D01*
X127724329Y-87160970D01*
X127702150Y-87150480D01*
X127681107Y-87137868D01*
X127661401Y-87123253D01*
X127643223Y-87106777D01*
X127626747Y-87088599D01*
X127612132Y-87068893D01*
X127599520Y-87047850D01*
X127589030Y-87025671D01*
X127580765Y-87002572D01*
X127574804Y-86978773D01*
X127571204Y-86954505D01*
X127570000Y-86930001D01*
X127570000Y-86279999D01*
X127571204Y-86255495D01*
X127574804Y-86231227D01*
X127580765Y-86207428D01*
X127589030Y-86184329D01*
X127599520Y-86162150D01*
X127612132Y-86141107D01*
X127626747Y-86121401D01*
X127643223Y-86103223D01*
X127661401Y-86086747D01*
X127681107Y-86072132D01*
X127702150Y-86059520D01*
X127724329Y-86049030D01*
X127747428Y-86040765D01*
X127771227Y-86034804D01*
X127795495Y-86031204D01*
X127819999Y-86030000D01*
X128720001Y-86030000D01*
X128744505Y-86031204D01*
G37*
M02*
