G04 #@! TF.GenerationSoftware,KiCad,Pcbnew,5.1.5*
G04 #@! TF.CreationDate,2020-01-04T22:00:14+01:00*
G04 #@! TF.ProjectId,cs_ina220,63735f69-6e61-4323-9230-2e6b69636164,rev?*
G04 #@! TF.SameCoordinates,Original*
G04 #@! TF.FileFunction,Legend,Top*
G04 #@! TF.FilePolarity,Positive*
%FSLAX46Y46*%
G04 Gerber Fmt 4.6, Leading zero omitted, Abs format (unit mm)*
G04 Created by KiCad (PCBNEW 5.1.5) date 2020-01-04 22:00:14*
%MOMM*%
%LPD*%
G04 APERTURE LIST*
%ADD10C,0.150000*%
%ADD11C,0.120000*%
G04 APERTURE END LIST*
D10*
X144057619Y-87725714D02*
X144057619Y-88392380D01*
X143057619Y-87963809D01*
X143105238Y-88820952D02*
X143057619Y-88820952D01*
X142962380Y-88773333D01*
X142914761Y-88725714D01*
X144057619Y-89678095D02*
X144057619Y-89487619D01*
X144010000Y-89392380D01*
X143962380Y-89344761D01*
X143819523Y-89249523D01*
X143629047Y-89201904D01*
X143248095Y-89201904D01*
X143152857Y-89249523D01*
X143105238Y-89297142D01*
X143057619Y-89392380D01*
X143057619Y-89582857D01*
X143105238Y-89678095D01*
X143152857Y-89725714D01*
X143248095Y-89773333D01*
X143486190Y-89773333D01*
X143581428Y-89725714D01*
X143629047Y-89678095D01*
X143676666Y-89582857D01*
X143676666Y-89392380D01*
X143629047Y-89297142D01*
X143581428Y-89249523D01*
X143486190Y-89201904D01*
X143962380Y-90154285D02*
X144010000Y-90201904D01*
X144057619Y-90297142D01*
X144057619Y-90535238D01*
X144010000Y-90630476D01*
X143962380Y-90678095D01*
X143867142Y-90725714D01*
X143771904Y-90725714D01*
X143629047Y-90678095D01*
X143057619Y-90106666D01*
X143057619Y-90725714D01*
X144057619Y-91344761D02*
X144057619Y-91440000D01*
X144010000Y-91535238D01*
X143962380Y-91582857D01*
X143867142Y-91630476D01*
X143676666Y-91678095D01*
X143438571Y-91678095D01*
X143248095Y-91630476D01*
X143152857Y-91582857D01*
X143105238Y-91535238D01*
X143057619Y-91440000D01*
X143057619Y-91344761D01*
X143105238Y-91249523D01*
X143152857Y-91201904D01*
X143248095Y-91154285D01*
X143438571Y-91106666D01*
X143676666Y-91106666D01*
X143867142Y-91154285D01*
X143962380Y-91201904D01*
X144010000Y-91249523D01*
X144057619Y-91344761D01*
X143057619Y-92868571D02*
X143724285Y-92868571D01*
X143629047Y-92868571D02*
X143676666Y-92916190D01*
X143724285Y-93011428D01*
X143724285Y-93154285D01*
X143676666Y-93249523D01*
X143581428Y-93297142D01*
X143057619Y-93297142D01*
X143581428Y-93297142D02*
X143676666Y-93344761D01*
X143724285Y-93440000D01*
X143724285Y-93582857D01*
X143676666Y-93678095D01*
X143581428Y-93725714D01*
X143057619Y-93725714D01*
X143057619Y-94201904D02*
X143724285Y-94201904D01*
X143629047Y-94201904D02*
X143676666Y-94249523D01*
X143724285Y-94344761D01*
X143724285Y-94487619D01*
X143676666Y-94582857D01*
X143581428Y-94630476D01*
X143057619Y-94630476D01*
X143581428Y-94630476D02*
X143676666Y-94678095D01*
X143724285Y-94773333D01*
X143724285Y-94916190D01*
X143676666Y-95011428D01*
X143581428Y-95059047D01*
X143057619Y-95059047D01*
D11*
X142240000Y-87630000D02*
X142240000Y-95250000D01*
X140970000Y-87630000D02*
X142826421Y-87630000D01*
X140970000Y-95250000D02*
X142826421Y-95250000D01*
X142240000Y-95250000D02*
X141653579Y-94123496D01*
X142240000Y-95250000D02*
X142826421Y-94123496D01*
X142240000Y-87630000D02*
X141653579Y-88756504D01*
X142240000Y-87630000D02*
X142826421Y-88756504D01*
D10*
X134272976Y-95654761D02*
X134415833Y-95702380D01*
X134653928Y-95702380D01*
X134749166Y-95654761D01*
X134796785Y-95607142D01*
X134844404Y-95511904D01*
X134844404Y-95416666D01*
X134796785Y-95321428D01*
X134749166Y-95273809D01*
X134653928Y-95226190D01*
X134463452Y-95178571D01*
X134368214Y-95130952D01*
X134320595Y-95083333D01*
X134272976Y-94988095D01*
X134272976Y-94892857D01*
X134320595Y-94797619D01*
X134368214Y-94750000D01*
X134463452Y-94702380D01*
X134701547Y-94702380D01*
X134844404Y-94750000D01*
X135272976Y-95702380D02*
X135272976Y-94702380D01*
X135511071Y-94702380D01*
X135653928Y-94750000D01*
X135749166Y-94845238D01*
X135796785Y-94940476D01*
X135844404Y-95130952D01*
X135844404Y-95273809D01*
X135796785Y-95464285D01*
X135749166Y-95559523D01*
X135653928Y-95654761D01*
X135511071Y-95702380D01*
X135272976Y-95702380D01*
X136225357Y-95416666D02*
X136701547Y-95416666D01*
X136130119Y-95702380D02*
X136463452Y-94702380D01*
X136796785Y-95702380D01*
X134272976Y-93114761D02*
X134415833Y-93162380D01*
X134653928Y-93162380D01*
X134749166Y-93114761D01*
X134796785Y-93067142D01*
X134844404Y-92971904D01*
X134844404Y-92876666D01*
X134796785Y-92781428D01*
X134749166Y-92733809D01*
X134653928Y-92686190D01*
X134463452Y-92638571D01*
X134368214Y-92590952D01*
X134320595Y-92543333D01*
X134272976Y-92448095D01*
X134272976Y-92352857D01*
X134320595Y-92257619D01*
X134368214Y-92210000D01*
X134463452Y-92162380D01*
X134701547Y-92162380D01*
X134844404Y-92210000D01*
X135844404Y-93067142D02*
X135796785Y-93114761D01*
X135653928Y-93162380D01*
X135558690Y-93162380D01*
X135415833Y-93114761D01*
X135320595Y-93019523D01*
X135272976Y-92924285D01*
X135225357Y-92733809D01*
X135225357Y-92590952D01*
X135272976Y-92400476D01*
X135320595Y-92305238D01*
X135415833Y-92210000D01*
X135558690Y-92162380D01*
X135653928Y-92162380D01*
X135796785Y-92210000D01*
X135844404Y-92257619D01*
X136749166Y-93162380D02*
X136272976Y-93162380D01*
X136272976Y-92162380D01*
X134177738Y-89622380D02*
X134511071Y-90622380D01*
X134844404Y-89622380D01*
X135749166Y-90527142D02*
X135701547Y-90574761D01*
X135558690Y-90622380D01*
X135463452Y-90622380D01*
X135320595Y-90574761D01*
X135225357Y-90479523D01*
X135177738Y-90384285D01*
X135130119Y-90193809D01*
X135130119Y-90050952D01*
X135177738Y-89860476D01*
X135225357Y-89765238D01*
X135320595Y-89670000D01*
X135463452Y-89622380D01*
X135558690Y-89622380D01*
X135701547Y-89670000D01*
X135749166Y-89717619D01*
X136749166Y-90527142D02*
X136701547Y-90574761D01*
X136558690Y-90622380D01*
X136463452Y-90622380D01*
X136320595Y-90574761D01*
X136225357Y-90479523D01*
X136177738Y-90384285D01*
X136130119Y-90193809D01*
X136130119Y-90050952D01*
X136177738Y-89860476D01*
X136225357Y-89765238D01*
X136320595Y-89670000D01*
X136463452Y-89622380D01*
X136558690Y-89622380D01*
X136701547Y-89670000D01*
X136749166Y-89717619D01*
X134844404Y-87130000D02*
X134749166Y-87082380D01*
X134606309Y-87082380D01*
X134463452Y-87130000D01*
X134368214Y-87225238D01*
X134320595Y-87320476D01*
X134272976Y-87510952D01*
X134272976Y-87653809D01*
X134320595Y-87844285D01*
X134368214Y-87939523D01*
X134463452Y-88034761D01*
X134606309Y-88082380D01*
X134701547Y-88082380D01*
X134844404Y-88034761D01*
X134892023Y-87987142D01*
X134892023Y-87653809D01*
X134701547Y-87653809D01*
X135320595Y-88082380D02*
X135320595Y-87082380D01*
X135892023Y-88082380D01*
X135892023Y-87082380D01*
X136368214Y-88082380D02*
X136368214Y-87082380D01*
X136606309Y-87082380D01*
X136749166Y-87130000D01*
X136844404Y-87225238D01*
X136892023Y-87320476D01*
X136939642Y-87510952D01*
X136939642Y-87653809D01*
X136892023Y-87844285D01*
X136844404Y-87939523D01*
X136749166Y-88034761D01*
X136606309Y-88082380D01*
X136368214Y-88082380D01*
X104217500Y-94432380D02*
X103741309Y-94432380D01*
X103741309Y-93432380D01*
X104741309Y-93432380D02*
X104931785Y-93432380D01*
X105027023Y-93480000D01*
X105122261Y-93575238D01*
X105169880Y-93765714D01*
X105169880Y-94099047D01*
X105122261Y-94289523D01*
X105027023Y-94384761D01*
X104931785Y-94432380D01*
X104741309Y-94432380D01*
X104646071Y-94384761D01*
X104550833Y-94289523D01*
X104503214Y-94099047D01*
X104503214Y-93765714D01*
X104550833Y-93575238D01*
X104646071Y-93480000D01*
X104741309Y-93432380D01*
X105550833Y-94146666D02*
X106027023Y-94146666D01*
X105455595Y-94432380D02*
X105788928Y-93432380D01*
X106122261Y-94432380D01*
X106455595Y-94432380D02*
X106455595Y-93432380D01*
X106693690Y-93432380D01*
X106836547Y-93480000D01*
X106931785Y-93575238D01*
X106979404Y-93670476D01*
X107027023Y-93860952D01*
X107027023Y-94003809D01*
X106979404Y-94194285D01*
X106931785Y-94289523D01*
X106836547Y-94384761D01*
X106693690Y-94432380D01*
X106455595Y-94432380D01*
X104312738Y-89352380D02*
X104312738Y-88352380D01*
X104693690Y-88352380D01*
X104788928Y-88400000D01*
X104836547Y-88447619D01*
X104884166Y-88542857D01*
X104884166Y-88685714D01*
X104836547Y-88780952D01*
X104788928Y-88828571D01*
X104693690Y-88876190D01*
X104312738Y-88876190D01*
X105217500Y-88352380D02*
X105455595Y-89352380D01*
X105646071Y-88638095D01*
X105836547Y-89352380D01*
X106074642Y-88352380D01*
X107027023Y-89352380D02*
X106693690Y-88876190D01*
X106455595Y-89352380D02*
X106455595Y-88352380D01*
X106836547Y-88352380D01*
X106931785Y-88400000D01*
X106979404Y-88447619D01*
X107027023Y-88542857D01*
X107027023Y-88685714D01*
X106979404Y-88780952D01*
X106931785Y-88828571D01*
X106836547Y-88876190D01*
X106455595Y-88876190D01*
D11*
X125730000Y-93050000D02*
X128655000Y-93050000D01*
X125730000Y-93050000D02*
X124230000Y-93050000D01*
X125730000Y-89830000D02*
X127230000Y-89830000D01*
X125730000Y-89830000D02*
X124230000Y-89830000D01*
X116565000Y-90837936D02*
X116565000Y-92042064D01*
X118385000Y-90837936D02*
X118385000Y-92042064D01*
X107950000Y-86360000D02*
X107950000Y-96520000D01*
X115570000Y-86360000D02*
X107950000Y-86360000D01*
X115570000Y-96520000D02*
X115570000Y-86360000D01*
X107950000Y-96520000D02*
X115570000Y-96520000D01*
X109220000Y-96520000D02*
X109220000Y-86360000D01*
X130750000Y-86300000D02*
X132080000Y-86300000D01*
X130750000Y-87630000D02*
X130750000Y-86300000D01*
X130750000Y-88900000D02*
X133410000Y-88900000D01*
X133410000Y-88900000D02*
X133410000Y-96580000D01*
X130750000Y-88900000D02*
X130750000Y-96580000D01*
X130750000Y-96580000D02*
X133410000Y-96580000D01*
X127560000Y-87368748D02*
X127560000Y-87891252D01*
X128980000Y-87368748D02*
X128980000Y-87891252D01*
D10*
X124968095Y-93342380D02*
X124968095Y-94151904D01*
X125015714Y-94247142D01*
X125063333Y-94294761D01*
X125158571Y-94342380D01*
X125349047Y-94342380D01*
X125444285Y-94294761D01*
X125491904Y-94247142D01*
X125539523Y-94151904D01*
X125539523Y-93342380D01*
X126539523Y-94342380D02*
X125968095Y-94342380D01*
X126253809Y-94342380D02*
X126253809Y-93342380D01*
X126158571Y-93485238D01*
X126063333Y-93580476D01*
X125968095Y-93628095D01*
X119594333Y-91892380D02*
X119261000Y-91416190D01*
X119022904Y-91892380D02*
X119022904Y-90892380D01*
X119403857Y-90892380D01*
X119499095Y-90940000D01*
X119546714Y-90987619D01*
X119594333Y-91082857D01*
X119594333Y-91225714D01*
X119546714Y-91320952D01*
X119499095Y-91368571D01*
X119403857Y-91416190D01*
X119022904Y-91416190D01*
X120546714Y-91892380D02*
X119975285Y-91892380D01*
X120261000Y-91892380D02*
X120261000Y-90892380D01*
X120165761Y-91035238D01*
X120070523Y-91130476D01*
X119975285Y-91178095D01*
X111680666Y-84796380D02*
X111680666Y-85510666D01*
X111633047Y-85653523D01*
X111537809Y-85748761D01*
X111394952Y-85796380D01*
X111299714Y-85796380D01*
X112585428Y-85129714D02*
X112585428Y-85796380D01*
X112347333Y-84748761D02*
X112109238Y-85463047D01*
X112728285Y-85463047D01*
X131746666Y-84796380D02*
X131746666Y-85510666D01*
X131699047Y-85653523D01*
X131603809Y-85748761D01*
X131460952Y-85796380D01*
X131365714Y-85796380D01*
X132127619Y-84796380D02*
X132746666Y-84796380D01*
X132413333Y-85177333D01*
X132556190Y-85177333D01*
X132651428Y-85224952D01*
X132699047Y-85272571D01*
X132746666Y-85367809D01*
X132746666Y-85605904D01*
X132699047Y-85701142D01*
X132651428Y-85748761D01*
X132556190Y-85796380D01*
X132270476Y-85796380D01*
X132175238Y-85748761D01*
X132127619Y-85701142D01*
X126198333Y-87987142D02*
X126150714Y-88034761D01*
X126007857Y-88082380D01*
X125912619Y-88082380D01*
X125769761Y-88034761D01*
X125674523Y-87939523D01*
X125626904Y-87844285D01*
X125579285Y-87653809D01*
X125579285Y-87510952D01*
X125626904Y-87320476D01*
X125674523Y-87225238D01*
X125769761Y-87130000D01*
X125912619Y-87082380D01*
X126007857Y-87082380D01*
X126150714Y-87130000D01*
X126198333Y-87177619D01*
X127150714Y-88082380D02*
X126579285Y-88082380D01*
X126865000Y-88082380D02*
X126865000Y-87082380D01*
X126769761Y-87225238D01*
X126674523Y-87320476D01*
X126579285Y-87368095D01*
M02*
